<svg width="52" height="52" viewBox="0 0 52 52" fill="none" xmlns="http://www.w3.org/2000/svg">
<circle cx="26" cy="26" r="25.5" stroke="#020E0D"/>
<mask id="mask0" mask-type="alpha" maskUnits="userSpaceOnUse" x="1" y="1" width="50" height="50">
<circle cx="26" cy="26" r="24.5" fill="#0E2344" stroke="black"/>
</mask>
<g mask="url(#mask0)">
<path fill-rule="evenodd" clip-rule="evenodd" d="M10.0845 15.875C9.47172 15.9668 9.21642 16.8821 9.16536 17.3282C9.12281 17.3325 9.07955 17.3353 9.03629 17.3382C8.81999 17.3523 8.60369 17.3665 8.47603 17.5577C8.32285 17.7489 8.36115 18.3226 8.47603 18.6668C8.49829 18.7334 8.5349 18.8417 8.57977 18.9743C8.76653 19.5266 9.09618 20.5012 9.12706 20.6554C9.16535 20.8466 9.31854 21.6115 9.43342 22.0322C9.48101 22.2064 9.5286 22.2691 9.58435 22.3426C9.6632 22.4465 9.75837 22.5719 9.89297 23.0648C9.89297 23.1941 9.76773 23.4665 9.63831 23.7479C9.49996 24.0487 9.35683 24.3599 9.35683 24.518C9.20365 24.7857 9.20365 28.1894 9.70149 29.069C9.78514 29.1943 9.83453 29.388 9.88707 29.5941C9.93076 29.7654 9.97662 29.9453 10.0462 30.1015C10.0844 30.1908 10.1525 30.3267 10.2305 30.4825C10.3866 30.7942 10.5823 31.1851 10.6589 31.44C10.7738 31.8225 12.3439 33.6582 12.612 33.8876C12.6427 33.9139 12.6814 33.9462 12.7271 33.9843C13.0803 34.2788 13.8485 34.9193 14.5267 35.7998C14.55 35.8927 14.567 35.9715 14.5828 36.0448C14.645 36.3334 14.6886 36.5361 15.0246 37.1765C15.0634 37.2412 15.0848 37.3146 15.1108 37.4041C15.1617 37.5794 15.2307 37.8165 15.4841 38.1709C15.5908 38.4601 15.7522 38.7009 15.9198 38.951C16.1733 39.3293 16.4412 39.7292 16.5564 40.3507C16.6234 40.451 16.6537 40.544 16.6859 40.6424C16.7273 40.7692 16.7717 40.9051 16.9011 41.0774C17.1309 41.3833 17.2457 44.5575 16.9011 44.7487C16.3139 44.7232 15.1088 44.6875 14.9863 44.7487C14.9754 44.7542 14.9611 44.7611 14.9436 44.7696C14.7147 44.8809 13.9471 45.2538 13.3779 45.8578C12.7396 45.8705 11.3329 45.8731 10.8121 45.7813C10.161 45.6666 14.6033 48.4998 16.5564 49.1882C16.9711 49.3343 17.1635 49.4327 17.5341 49.5868C18.9089 50.1585 20.409 50.88 24.3607 51.1813C28.3628 51.4863 30.841 50.6921 31.8594 50.4387C32.1176 50.3745 32.2873 50.3323 32.3725 50.3323C32.7095 50.3323 36.2149 48.9555 37.9254 48.2671L39.4955 47.2346C38.8614 46.4494 38.6641 45.9158 38.5475 45.6005C38.4881 45.4398 38.4496 45.3358 38.385 45.2841C38.2331 45.1628 38.1776 44.8492 38.142 44.6483C38.1327 44.5958 38.1248 44.551 38.1169 44.5193C38.101 44.4559 38.0457 44.2941 37.981 44.1046C37.8894 43.8365 37.7788 43.5129 37.7339 43.3337C37.6764 43.0175 37.6356 42.7541 37.6015 42.5333C37.4993 41.8729 37.4561 41.5935 37.1978 41.4216C37.0809 41.3516 36.9784 41.2902 36.888 41.2362C36.3776 40.9312 36.2565 40.8588 36.1546 40.7655C36.1229 40.7364 36.0929 40.7053 36.0538 40.6646C36.022 40.6314 35.9841 40.5919 35.934 40.542C35.5894 40.5037 34.9766 38.4768 35.3979 38.9357C37.1565 41.1568 39.4019 41.0435 41.375 40.1268C42.908 39.4145 44.2766 38.2173 45.125 37.253C43.3634 37.5207 39.6564 37.9797 38.9211 37.6737C38.002 37.2913 36.9297 36.297 35.5511 34.0024C34.1724 31.7078 33.3299 31.1723 32.4874 31.0959C31.8134 31.0347 31.5939 30.9174 31.5683 30.8664C31.0705 30.2927 30.2663 30.0946 29.8833 30.025C28.4114 29.7578 27.8746 29.7759 27.3879 29.7923C27.0389 29.804 26.7158 29.8149 26.092 29.7191C24.7892 29.5189 23.8943 28.9113 23.4837 28.6325C23.4236 28.5917 23.3739 28.558 23.3348 28.5336C22.5859 27.9177 22.0777 27.6181 21.6863 27.3873C21.3973 27.2169 21.1719 27.0841 20.9604 26.8891C19.5818 25.4817 18.3946 24.722 17.9734 24.518C16.633 23.9443 16.2118 23.4089 16.2118 23.4089C16.2118 23.4089 16.0586 22.7588 16.1735 22.8735C16.8628 23.1795 17.1692 22.95 17.1692 22.8735C16.8469 21.9619 16.0917 21.5202 15.5767 21.219C15.3572 21.0906 15.1813 20.9877 15.1012 20.8849C14.9672 20.7128 14.9289 20.6554 14.9097 20.6267C14.904 20.6181 14.8999 20.6121 14.8956 20.6064C14.8854 20.5929 14.8733 20.5809 14.8331 20.5407C13.9309 18.9845 13.7704 18.9291 13.3622 18.7882C13.1987 18.7317 12.9953 18.6616 12.6886 18.4755C11.6163 17.8254 10.6972 16.6016 10.6206 16.4869C10.5823 16.4614 10.544 16.3849 10.4986 16.2943C10.4078 16.113 10.2887 15.875 10.0845 15.875ZM37.9254 48.2671C37.1289 48.0224 34.6064 47.6807 33.4448 47.5405C33.3456 47.4084 33.3606 46.4201 33.3666 46.0302C33.3675 45.9687 33.3682 45.9221 33.3682 45.896C33.3682 45.8247 33.3896 45.5668 33.4143 45.2677C33.4559 44.7653 33.5071 44.1465 33.4831 44.0986C33.4525 44.0374 33.3682 43.9711 33.3299 43.9456C32.3802 43.2114 32.2959 41.8805 32.3725 41.3068C32.3999 41.3889 33.3475 41.7642 33.9414 41.9994C34.1781 42.0931 34.3586 42.1646 34.4022 42.1864C34.5171 42.1482 35.283 42.7218 35.4362 42.8748C35.4362 42.9367 35.6253 43.1763 35.8177 43.42C35.9822 43.6284 36.1491 43.8398 36.2021 43.9456C36.301 44.1432 36.8258 44.9928 37.1653 45.5426C37.2201 45.6313 37.2701 45.7122 37.3127 45.7813C37.5578 46.179 37.8233 47.6042 37.9254 48.2671ZM21.1136 42.3394C21.6038 43.7774 21.2157 45.0292 20.9604 45.4754C20.7817 45.3861 20.386 45.2077 20.2328 45.2077C19.1555 45.2077 19.1436 45.1781 19.0785 45.015C19.0695 44.9926 19.0595 44.9677 19.0456 44.94C18.9648 44.7786 18.9977 44.3523 19.0243 44.0072C19.0355 43.8616 19.0456 43.7304 19.0456 43.6397C19.0456 43.3337 19.0456 40.9244 19.1605 40.2743C19.3135 39.3321 19.2118 39.0851 19.1268 38.8785C19.0841 38.7748 19.0456 38.6812 19.0456 38.5151C19.1222 37.6737 20.2711 37.5972 20.4243 38.1709C20.4394 38.2988 20.4518 38.406 20.4624 38.4966L20.4625 38.4973C20.5049 38.8624 20.5159 38.9564 20.5384 39.0476C20.5463 39.0792 20.5555 39.1104 20.5679 39.1525C20.601 39.2646 20.6567 39.4535 20.7689 39.9301C20.9541 40.7157 20.9854 41.1244 21.015 41.5104C21.0343 41.7633 21.053 42.0064 21.1136 42.3394ZM31.6066 47.0051C31.5556 46.2657 31.3768 44.764 31.0705 44.6722C30.6875 44.5575 28.1217 42.4541 27.5473 41.6893C26.9728 40.9244 26.092 38.7063 26.092 38.4003C26.092 38.0944 25.6708 37.4443 24.8283 37.5972C24.5602 37.5972 23.7177 37.712 23.2199 38.1709C22.8999 38.4658 22.9438 38.9504 22.9956 39.523C23.0245 39.8413 23.0558 40.1867 23.0284 40.542C23.2199 41.3068 23.4113 44.2133 23.2199 44.6722C23.0284 45.1312 22.8752 46.0108 23.4879 46.0873C23.7835 46.1241 24.3464 46.0988 24.8628 46.0755C25.417 46.0505 25.9177 46.0279 25.9772 46.0873C26.0069 46.117 26.0779 46.1442 26.1873 46.1861C26.5001 46.3059 27.1273 46.5461 28.0068 47.311C28.2366 47.362 28.9336 47.4028 29.8833 47.1581C30.4348 47.0357 31.262 47.0051 31.6066 47.0051Z" fill="#020E0D"/>
<path d="M45.125 37.253C44.2766 38.2173 42.908 39.4145 41.375 40.1268C43.637 39.1827 44.8175 37.8176 45.125 37.253Z" fill="#020E0D"/>
</g>
</svg>
