<svg width="1422" height="378" viewBox="0 0 1422 378" fill="none" xmlns="http://www.w3.org/2000/svg">
<path fill-rule="evenodd" clip-rule="evenodd" d="M69.8548 49C85.3074 49 98.4417 58.9258 103.23 72.7495C108.154 69.3885 114.107 67.4232 120.519 67.4232C136.616 67.4232 149.82 79.8098 151.119 95.5716C154.565 93.3058 158.69 91.9876 163.122 91.9876C175.205 91.9876 185 101.783 185 113.865C185 125.948 175.205 135.743 163.122 135.743C162.476 135.743 161.836 135.715 161.203 135.66V135.743H29.1701V135.684C12.8938 134.693 0 121.179 0 104.654C0 87.4834 13.9191 73.5643 31.0892 73.5643C32.7895 73.5643 34.4578 73.7008 36.084 73.9634C40.5071 59.5106 53.9535 49 69.8548 49Z" fill="#FAF7F2"/>
<path fill-rule="evenodd" clip-rule="evenodd" d="M952.116 284C939.754 284 929.247 291.941 925.416 303C921.477 300.311 916.714 298.739 911.585 298.739C898.707 298.739 888.144 308.648 887.105 321.257C884.348 319.445 881.048 318.39 877.502 318.39C867.836 318.39 860 326.226 860 335.892C860 345.558 867.836 353.394 877.502 353.394C878.019 353.394 878.531 353.372 879.037 353.328V353.394H984.664V353.348C997.685 352.555 1008 341.743 1008 328.523C1008 314.787 996.865 303.651 983.129 303.651C981.768 303.651 980.434 303.761 979.133 303.971C975.594 292.408 964.837 284 952.116 284Z" fill="#FAF7F2"/>
<path fill-rule="evenodd" clip-rule="evenodd" d="M1067.59 30.9463C1067.59 31.7378 1067.56 32.5224 1067.5 33.2989C1070.63 31.1419 1074.43 29.8792 1078.53 29.8792C1089.28 29.8792 1098 38.5984 1098 49.354C1098 59.1122 1090.82 67.1941 1081.46 68.6092V68.8289H1078.53H958.475H957.141V68.7839C947.007 68.0984 939 59.6614 939 49.354C939 38.5984 947.719 29.8792 958.475 29.8792C960.631 29.8792 962.705 30.2296 964.644 30.8765C964.622 30.4579 964.611 30.0365 964.611 29.6124C964.611 16.4994 975.241 5.86916 988.354 5.86916C997.035 5.86916 1004.63 10.5282 1008.77 17.4823C1013.78 7.13575 1024.38 0 1036.64 0C1053.73 0 1067.59 13.8551 1067.59 30.9463Z" fill="#FAF7F2"/>
<path fill-rule="evenodd" clip-rule="evenodd" d="M518.386 153.114C518.386 154.035 518.421 154.948 518.488 155.851C514.841 153.342 510.422 151.873 505.659 151.873C493.145 151.873 483 162.017 483 174.532C483 185.886 491.351 195.289 502.245 196.936V197.191H505.633L505.659 197.191L505.686 197.191H645.314C645.323 197.191 645.332 197.191 645.341 197.191C645.349 197.191 645.358 197.191 645.367 197.191H646.893V197.139C658.683 196.341 668 186.525 668 174.532C668 162.017 657.855 151.873 645.341 151.873C642.832 151.873 640.419 152.28 638.163 153.033C638.188 152.546 638.201 152.056 638.201 151.562C638.201 136.305 625.833 123.936 610.576 123.936C600.475 123.936 591.64 129.357 586.822 137.449C580.996 125.41 568.664 117.107 554.393 117.107C534.507 117.107 518.386 133.228 518.386 153.114Z" fill="#FAF7F2"/>
<path fill-rule="evenodd" clip-rule="evenodd" d="M243.035 326.579C245.693 315.907 255.341 308 266.835 308C277.369 308 286.352 314.641 289.825 323.964C293.727 321.541 298.33 320.142 303.26 320.142C316.431 320.142 327.27 330.128 328.617 342.942C330.413 342.329 332.339 341.997 334.343 341.997C344.133 341.997 352.07 349.933 352.07 359.724C352.07 368.774 345.288 376.24 336.529 377.317V377.451H202.97V377.449C202.889 377.45 202.808 377.451 202.727 377.451C192.937 377.451 185 369.514 185 359.724C185 349.933 192.937 341.997 202.727 341.997C205.826 341.997 208.739 342.792 211.274 344.19C212.02 332.929 221.389 324.027 232.838 324.027C236.526 324.027 239.998 324.95 243.035 326.579Z" fill="#FAF7F2"/>
<path fill-rule="evenodd" clip-rule="evenodd" d="M1376.79 125.308C1381.5 122.378 1387.07 120.685 1393.03 120.685C1408.96 120.685 1422.07 132.764 1423.7 148.262C1425.88 147.521 1428.21 147.119 1430.63 147.119C1442.47 147.119 1452.07 156.718 1452.07 168.559C1452.07 179.506 1443.87 188.536 1433.27 189.839V190H1271.73V189.998C1271.64 189.999 1271.54 190 1271.44 190C1259.6 190 1250 180.401 1250 168.559C1250 156.718 1259.6 147.119 1271.44 147.119C1275.19 147.119 1278.71 148.081 1281.78 149.771C1282.68 136.152 1294.01 125.385 1307.86 125.385C1312.32 125.385 1316.52 126.502 1320.19 128.471C1323.41 115.564 1335.08 106 1348.98 106C1361.72 106 1372.58 114.032 1376.79 125.308Z" fill="#FAF7F2"/>
</svg>
