<svg width="210" height="209" viewBox="0 0 210 209" fill="none" xmlns="http://www.w3.org/2000/svg">
<path d="M5.08831 8.0249C4.19253 45.1915 18.1517 83.9446 25.2433 98.6752C56.2223 101.319 115.717 92.1031 87.9478 61.282C60.1787 30.4609 19.6447 15.2014 5.08831 8.0249Z" fill="#EFEFEF"/>
<path fill-rule="evenodd" clip-rule="evenodd" d="M0.23305 0L7.31821 3.49307C9.35155 4.49553 11.977 5.68708 15.0673 7.08962C33.1793 15.3098 67.2598 30.7772 91.6957 57.8988C99.2074 66.2361 102.138 74.6553 98.8774 82.4509C95.88 89.6182 88.3484 94.2272 80.4231 97.2501C64.2175 103.431 40.7813 105.073 24.8145 103.71L21.9463 103.465L20.6965 100.869C13.4075 85.7285 -0.879398 46.1564 0.0425562 7.90376L0.23305 0ZM10.1641 15.9739C11.1332 47.5412 21.956 79.1211 28.5671 93.8478C43.3839 94.7022 63.3827 92.9361 76.829 87.8074C84.1787 85.0041 88.2502 81.6954 89.5661 78.5488C90.6192 76.0306 90.5727 71.7399 84.1998 64.6666C61.3528 39.3086 29.6452 24.8545 11.2949 16.4895C10.9121 16.315 10.5351 16.1431 10.1641 15.9739Z" fill="#C2C2C2"/>
<path d="M204.888 8.0249C205.784 45.1915 191.825 83.9446 184.733 98.6752C153.754 101.319 94.2594 92.1031 122.028 61.282C149.798 30.4609 190.332 15.2014 204.888 8.0249Z" fill="#EFEFEF"/>
<path fill-rule="evenodd" clip-rule="evenodd" d="M209.743 0L209.933 7.90376C210.855 46.1564 196.569 85.7285 189.279 100.869L188.03 103.465L185.162 103.71C169.195 105.073 145.759 103.431 129.553 97.2501C121.628 94.2272 114.096 89.6182 111.099 82.4509C107.838 74.6553 110.769 66.2361 118.28 57.8988C142.716 30.7772 176.797 15.3098 194.909 7.08962C197.999 5.68708 200.624 4.49553 202.658 3.49307L209.743 0ZM198.681 16.4895C180.331 24.8545 148.623 39.3086 125.776 64.6666C119.403 71.7399 119.357 76.0306 120.41 78.5488C121.726 81.6954 125.797 85.0041 133.147 87.8074C146.593 92.9361 166.592 94.7022 181.409 93.8478C188.02 79.1211 198.843 47.5412 199.812 15.9739C199.441 16.1432 199.064 16.315 198.681 16.4895Z" fill="#C2C2C2"/>
<path d="M198.738 126.041C198.738 176.732 105.271 201.57 105.271 201.57C105.271 201.57 11.8032 180.269 11.8032 126.041C11.8032 77.2108 53.6501 37.626 105.271 37.626C156.892 37.626 198.738 77.2108 198.738 126.041Z" fill="#C2C2C2"/>
<path d="M0.542419 138.952C6.84867 138.041 12.5543 132.88 14.0558 130.983C18.5603 126.429 29.8214 117.321 39.9565 117.321C50.0915 117.321 56.8482 118.459 65.8572 125.29C76.854 133.629 92.8839 158.307 104.145 193.6L94.0101 200.431C63.6049 184.492 30.1968 182.595 18.5603 181.077C18.5603 175.384 20.8125 173.107 23.0647 169.692C18.5603 169.692 6.173 165.138 5.04688 162.861C5.04688 159.445 7.29912 151.476 8.42523 149.199C3.01987 146.466 0.917792 141.229 0.542419 138.952Z" fill="#EFEFEF"/>
<path d="M210 138.953C203.694 138.042 197.988 132.881 196.487 130.983C191.982 126.429 180.721 117.321 170.586 117.321C160.451 117.321 153.694 118.46 144.685 125.291C133.688 133.629 117.658 158.307 106.397 193.601L116.532 200.432C146.937 184.493 180.346 182.595 191.982 181.077C191.982 175.385 189.73 173.108 187.478 169.692C191.982 169.692 204.369 165.138 205.496 162.861C205.496 159.446 203.243 151.476 202.117 149.199C207.523 146.467 209.625 141.23 210 138.953Z" fill="#EFEFEF"/>
<path d="M108.905 207.691C107.083 209.051 104.584 209.051 102.761 207.692L94.3312 201.402C90.3642 198.442 92.4553 192.131 97.4028 192.131H114.261C119.209 192.131 121.3 198.442 117.333 201.402L108.905 207.691Z" fill="#081226"/>
<path fill-rule="evenodd" clip-rule="evenodd" d="M69.1017 119.274C69.9073 120.413 69.6385 121.99 68.5014 122.796C64.8072 125.414 59.7677 127.514 54.5942 128.943C49.4042 130.376 43.8826 131.188 39.1418 131.107C37.7484 131.084 36.6373 129.934 36.6601 128.539C36.6829 127.144 37.8311 126.032 39.2245 126.055C43.3888 126.126 48.4236 125.404 53.2503 124.072C58.0936 122.734 62.5313 120.835 65.5839 118.671C66.7211 117.865 68.296 118.135 69.1017 119.274Z" fill="#081226"/>
<path fill-rule="evenodd" clip-rule="evenodd" d="M139.925 119.274C139.119 120.413 139.388 121.99 140.525 122.796C144.219 125.414 149.259 127.514 154.432 128.943C159.622 130.376 165.144 131.188 169.885 131.107C171.278 131.084 172.389 129.934 172.367 128.539C172.344 127.144 171.196 126.032 169.802 126.055C165.638 126.126 160.603 125.404 155.776 124.072C150.933 122.734 146.495 120.835 143.443 118.671C142.306 117.865 140.731 118.135 139.925 119.274Z" fill="#081226"/>
<path d="M67.3635 137.949H51.9433V177.826H67.3635V137.949Z" fill="#3AD0FF"/>
<path fill-rule="evenodd" clip-rule="evenodd" d="M61.0651 138.402C64.0471 138.976 66.5829 140.982 67.9826 142.686C68.5359 143.359 69.5298 143.456 70.2026 142.902C70.8755 142.349 70.9724 141.354 70.4191 140.68C68.7059 138.595 65.5716 136.053 61.6606 135.301C57.6055 134.521 53.0019 135.72 48.6726 140.639C48.0968 141.293 48.1598 142.291 48.8134 142.868C49.4669 143.444 50.4636 143.381 51.0395 142.727C54.7149 138.551 58.2273 137.856 61.0651 138.402Z" fill="#081226"/>
<path d="M61.9665 160.188C64.4337 161.81 66.5925 160.864 67.3635 160.188V151.707C66.5925 152.383 64.4337 153.329 61.9665 151.707C59.4992 150.085 57.3404 151.031 56.5694 151.707C56.0554 152.093 54.719 152.808 53.4853 152.576C52.2517 152.344 51.9433 152.093 51.9433 151.997V160.478C51.9433 160.574 52.2517 160.825 53.4853 161.057C54.719 161.289 56.0554 160.574 56.5694 160.188C57.3404 159.512 59.4992 158.566 61.9665 160.188Z" fill="white" fill-opacity="0.5"/>
<path d="M67.0422 182.898C68.6918 182.563 69.9335 181.103 69.9335 179.352C69.9335 177.354 68.3154 175.735 66.3194 175.735C66.0575 175.735 65.8022 175.762 65.5562 175.815C65.2407 173.322 63.1137 171.393 60.5368 171.393C59.0177 171.393 57.655 172.063 56.7276 173.124C56.3491 172.942 55.925 172.84 55.477 172.84C54.2748 172.84 53.2439 173.575 52.8079 174.62C52.2945 174.406 51.7311 174.287 51.1401 174.287C48.7449 174.287 46.8032 176.231 46.8032 178.629C46.8032 181.027 48.7449 182.97 51.1401 182.97H67.0422V182.898Z" fill="white"/>
<path d="M144.464 137.949H159.885V177.826H144.464V137.949Z" fill="#3AD0FF"/>
<path fill-rule="evenodd" clip-rule="evenodd" d="M150.763 138.402C147.781 138.976 145.245 140.982 143.846 142.686C143.292 143.36 142.298 143.457 141.626 142.903C140.953 142.349 140.856 141.354 141.409 140.681C143.122 138.595 146.257 136.054 150.168 135.301C154.223 134.521 158.826 135.721 163.156 140.64C163.732 141.294 163.669 142.292 163.015 142.868C162.361 143.445 161.365 143.381 160.789 142.727C157.113 138.551 153.601 137.856 150.763 138.402Z" fill="#081226"/>
<path d="M149.861 160.189C147.394 161.811 145.235 160.865 144.464 160.189V151.708C145.235 152.383 147.394 153.33 149.861 151.708C152.329 150.086 154.487 151.032 155.258 151.708C155.772 152.094 157.109 152.808 158.343 152.577C159.576 152.345 159.885 152.094 159.885 151.997V160.478C159.885 160.575 159.576 160.826 158.343 161.058C157.109 161.289 155.772 160.575 155.258 160.189C154.487 159.513 152.329 158.567 149.861 160.189Z" fill="white" fill-opacity="0.5"/>
<path d="M143.501 182.898C141.851 182.563 140.61 181.103 140.61 179.353C140.61 177.355 142.228 175.735 144.224 175.735C144.486 175.735 144.741 175.763 144.987 175.816C145.302 173.322 147.429 171.394 150.006 171.394C151.525 171.394 152.888 172.064 153.816 173.125C154.194 172.943 154.618 172.841 155.066 172.841C156.268 172.841 157.299 173.575 157.735 174.62C158.249 174.406 158.812 174.288 159.403 174.288C161.798 174.288 163.74 176.232 163.74 178.629C163.74 181.027 161.798 182.971 159.403 182.971H143.501V182.898Z" fill="white"/>
</svg>
