<svg width="254" height="230" viewBox="0 0 254 230" fill="none" xmlns="http://www.w3.org/2000/svg">
<path fill-rule="evenodd" clip-rule="evenodd" d="M18.644 91.8041L32.6829 97.819C37.1035 93.506 42.2092 89.8325 47.8802 86.9885L46.8771 71.7167C50.6293 70.1948 54.5539 68.9557 58.6312 68.0306C62.4458 67.1651 66.2584 66.6054 70.0434 66.3351L75.7044 80.4831C82.1643 80.5177 88.4754 81.5825 94.4383 83.552L104.533 72.0377C111.846 75.1152 118.639 79.3274 124.644 84.5064L118.65 98.4967C123.193 103.054 127.049 108.359 130.001 114.278L145.262 113.276C146.763 116.993 147.986 120.879 148.902 124.915C149.758 128.688 150.315 132.459 150.588 136.203L136.45 141.86C136.428 148.591 135.287 155.163 133.169 161.349L144.643 171.408C141.528 178.638 137.299 185.349 132.121 191.279L118.095 185.27C113.429 189.85 107.993 193.715 101.93 196.639L102.929 211.835C99.4328 213.204 95.7907 214.329 92.0177 215.185C87.9822 216.101 83.9489 216.674 79.9481 216.925L74.2665 202.725C67.6527 202.616 61.2026 201.428 55.1315 199.296L45.0977 210.741C37.834 207.558 31.1028 203.248 25.1709 197.98L31.2014 183.904C26.8515 179.375 23.1673 174.141 20.3485 168.329L5.14265 169.328C3.75303 165.797 2.61268 162.116 1.74724 158.301C0.822169 154.224 0.246329 150.149 0 146.107L14.2095 140.421C14.3277 134.078 15.4381 127.887 17.4211 122.038L5.93667 111.97C9.08152 104.624 13.3745 97.8111 18.644 91.8041ZM80.1315 164.5C92.9317 161.596 100.954 148.865 98.05 136.065C95.1458 123.265 82.415 115.242 69.6148 118.147C56.8146 121.051 48.7922 133.782 51.6963 146.582C54.6004 159.382 67.3313 167.404 80.1315 164.5Z" fill="#58B9FF"/>
<path d="M197.423 133.863C197.459 133.736 197.501 133.616 197.55 133.504C198.355 133.596 199.162 133.712 199.97 133.849C200.664 133.968 201.353 134.102 202.034 134.251C202.045 134.378 202.046 134.511 202.036 134.649L201.459 143.414C201.301 145.82 204.433 146.878 205.766 144.87L210.625 137.552C210.714 137.417 210.81 137.296 210.912 137.189C212.287 137.811 213.621 138.499 214.911 139.248C214.88 139.404 214.833 139.563 214.769 139.725L211.511 147.883C210.617 150.122 213.269 152.096 215.157 150.598L222.04 145.139C222.199 145.013 222.361 144.911 222.525 144.831C223.619 145.827 224.661 146.876 225.648 147.971C225.561 148.146 225.449 148.319 225.309 148.487L219.69 155.239C218.148 157.092 220.06 159.789 222.319 158.948L230.551 155.883C230.795 155.792 231.032 155.741 231.26 155.724C231.974 156.971 232.629 158.254 233.221 159.567C233.063 159.754 232.866 159.927 232.626 160.077L225.196 164.763C223.157 166.048 224.141 169.204 226.55 169.102L235.326 168.732C235.662 168.717 235.967 168.762 236.238 168.853C236.517 170.202 236.734 171.569 236.888 172.951C236.645 173.131 236.351 173.274 236.004 173.362L227.489 175.521C225.152 176.114 225.113 179.42 227.435 180.067L235.897 182.426C236.291 182.536 236.614 182.715 236.869 182.939C236.775 183.763 236.657 184.589 236.516 185.417C236.434 185.9 236.344 186.38 236.247 186.857C235.921 186.998 235.54 187.068 235.111 187.039L226.345 186.462C223.94 186.304 222.881 189.436 224.89 190.769L232.208 195.628C232.618 195.899 232.898 196.234 233.069 196.595C232.547 197.733 231.978 198.842 231.367 199.922C230.961 199.998 230.51 199.961 230.035 199.772L221.877 196.514C219.638 195.62 217.663 198.272 219.161 200.16L224.62 207.043C224.966 207.478 225.13 207.939 225.155 208.384C224.346 209.25 223.504 210.083 222.631 210.88C222.177 210.851 221.71 210.676 221.273 210.312L214.521 204.693C212.668 203.151 209.97 205.063 210.812 207.322L213.876 215.554C214.086 216.118 214.085 216.645 213.939 217.101C212.945 217.647 211.929 218.155 210.894 218.625C210.435 218.467 210.008 218.146 209.682 217.629L204.997 210.199C203.711 208.16 200.555 209.144 200.657 211.553L201.028 220.329C201.055 220.956 200.876 221.474 200.573 221.869C199.484 222.07 198.384 222.231 197.274 222.351C196.871 222.059 196.552 221.615 196.398 221.007L194.238 212.492C193.646 210.155 190.34 210.116 189.693 212.438L187.333 220.9C187.17 221.485 186.856 221.913 186.464 222.196C185.96 222.127 185.455 222.05 184.949 221.964C184.327 221.858 183.711 221.739 183.1 221.609C182.831 221.215 182.681 220.712 182.72 220.114L183.298 211.348C183.456 208.943 180.324 207.884 178.991 209.893L174.132 217.211C173.816 217.687 173.416 217.989 172.987 218.147C171.918 217.631 170.876 217.074 169.861 216.479C169.756 216.045 169.781 215.555 169.988 215.038L173.246 206.88C174.14 204.641 171.488 202.666 169.599 204.165L162.717 209.623C162.322 209.936 161.907 210.101 161.502 210.147C160.597 209.277 159.73 208.369 158.903 207.428C158.966 207.04 159.138 206.647 159.447 206.276L165.067 199.524C166.609 197.671 164.697 194.973 162.438 195.815L154.206 198.879C153.805 199.029 153.423 199.071 153.072 199.031C152.446 197.866 151.87 196.671 151.348 195.451C151.528 195.165 151.786 194.902 152.13 194.685L159.561 190C161.6 188.714 160.616 185.558 158.207 185.66L149.431 186.031C149.076 186.046 148.756 185.995 148.474 185.894C148.227 184.537 148.043 183.162 147.923 181.773C148.155 181.611 148.431 181.483 148.753 181.401L157.268 179.241C159.604 178.649 159.643 175.343 157.321 174.696L148.86 172.336C148.592 172.262 148.358 172.155 148.155 172.025C148.227 171.483 148.309 170.94 148.402 170.396C148.553 169.511 148.729 168.636 148.929 167.772C149.15 167.724 149.389 167.706 149.646 167.723L158.411 168.301C160.817 168.459 161.875 165.327 159.867 163.994L152.549 159.135C152.365 159.013 152.208 158.879 152.074 158.736C152.71 157.394 153.41 156.093 154.168 154.835C154.348 154.864 154.533 154.916 154.722 154.991L162.88 158.249C165.119 159.143 167.093 156.491 165.595 154.602L160.136 147.72C160.031 147.587 159.943 147.452 159.87 147.316C160.901 146.219 161.985 145.177 163.118 144.192C163.242 144.265 163.364 144.35 163.484 144.45L170.236 150.07C172.089 151.612 174.786 149.7 173.945 147.441L170.88 139.209C170.832 139.08 170.795 138.953 170.769 138.828C172.092 138.093 173.453 137.424 174.849 136.824C174.928 136.918 175.004 137.021 175.074 137.133L179.76 144.564C181.045 146.603 184.201 145.619 184.099 143.21L183.729 134.434C183.723 134.305 183.726 134.18 183.738 134.061C185.219 133.766 186.723 133.545 188.243 133.402C188.288 133.513 188.327 133.631 188.359 133.756L190.518 142.271C191.111 144.607 194.417 144.646 195.064 142.324L197.423 133.863Z" fill="#9859FF"/>
<path fill-rule="evenodd" clip-rule="evenodd" d="M177.802 15.6154L172.195 2.5518C169.1 3.34203 166.088 4.35392 163.178 5.57068L166.556 19.376C166.712 20.0118 166.728 20.6187 166.633 21.1808C164.621 22.1649 162.683 23.2798 160.829 24.5153C160.29 24.3123 159.768 23.9877 159.293 23.525L149.126 13.6134C146.586 15.5172 144.186 17.6027 141.946 19.8521L150.342 31.3031C150.734 31.8376 150.983 32.3993 151.108 32.962C149.626 34.6253 148.252 36.3892 146.997 38.2435C146.427 38.2593 145.828 38.1584 145.22 37.9156L132.021 32.6443C130.41 35.356 128.988 38.1975 127.774 41.1519L139.927 48.5272C140.468 48.8553 140.897 49.2564 141.224 49.7024C140.479 51.8217 139.871 54.0092 139.41 56.255C138.91 56.466 138.346 56.5885 137.725 56.5964L123.526 56.7772C123.303 58.336 123.135 59.914 123.023 61.5093C122.912 63.1046 122.858 64.6906 122.86 66.2651L136.896 68.4258C137.474 68.5148 137.988 68.6978 138.436 68.952C138.551 71.3019 138.829 73.614 139.26 75.8762C138.899 76.2139 138.464 76.5028 137.95 76.7234L124.886 82.3304C125.676 85.4253 126.688 88.4375 127.905 91.3475L141.71 87.9698C142.212 87.8471 142.695 87.811 143.152 87.8478C144.177 90.022 145.353 92.1139 146.669 94.109C146.471 94.5014 146.203 94.8798 145.859 95.2324L135.948 105.4C137.852 107.94 139.937 110.34 142.187 112.579L153.638 104.184C153.998 103.919 154.37 103.72 154.747 103.58C156.561 105.241 158.5 106.773 160.548 108.158C160.502 108.533 160.405 108.918 160.25 109.306L154.979 122.504C157.69 124.115 160.532 125.538 163.486 126.752L170.862 114.599C171.056 114.278 171.277 113.996 171.517 113.752C173.867 114.605 176.302 115.289 178.809 115.789C178.884 116.106 178.926 116.444 178.931 116.8L179.112 131C180.67 131.222 182.248 131.39 183.844 131.502C185.439 131.614 187.025 131.668 188.6 131.665L190.76 117.63C190.81 117.307 190.889 117.004 190.993 116.721C193.591 116.607 196.143 116.294 198.633 115.795C198.793 116.032 198.936 116.292 199.058 116.576L204.665 129.64C207.76 128.849 210.772 127.837 213.682 126.621L210.304 112.815C210.234 112.529 210.192 112.249 210.176 111.976C212.524 110.867 214.777 109.581 216.914 108.133C217.139 108.285 217.358 108.462 217.567 108.666L227.734 118.578C230.274 116.674 232.674 114.589 234.914 112.339L226.518 100.888C226.345 100.653 226.2 100.412 226.081 100.168C227.813 98.2529 229.401 96.2023 230.826 94.0318C231.094 94.0859 231.366 94.1664 231.64 94.2757L244.839 99.547C246.45 96.8353 247.872 93.9938 249.086 91.0394L236.933 83.6642C236.669 83.5039 236.431 83.3261 236.219 83.1343C237.06 80.7382 237.727 78.255 238.203 75.699C238.497 75.635 238.808 75.5991 239.135 75.5949L253.335 75.4141C253.557 73.8553 253.725 72.2774 253.837 70.6821C253.949 69.0867 254.002 67.5008 254 65.9262L239.964 63.7655C239.612 63.7113 239.284 63.6222 238.98 63.5035C238.834 60.9511 238.497 58.4444 237.98 55.9987C238.256 55.7949 238.565 55.616 238.91 55.468L251.974 49.861C251.184 46.766 250.172 43.7538 248.955 40.8439L235.15 44.2216C234.744 44.3209 234.35 44.3634 233.972 44.3565C232.886 42.1348 231.64 40.0018 230.249 37.9734C230.44 37.6199 230.689 37.2788 231.001 36.959L240.912 26.7917C239.008 24.2518 236.923 21.8518 234.674 19.612L223.223 28.0078C222.826 28.2989 222.414 28.5109 221.997 28.6523C220.205 27.0713 218.298 25.6145 216.288 24.2967C216.316 23.8385 216.419 23.365 216.61 22.8858L221.881 9.68702C219.17 8.07606 216.328 6.6537 213.374 5.43929L205.999 17.5925C205.709 18.0705 205.362 18.4617 204.977 18.7714C202.797 18.0293 200.546 17.4313 198.235 16.9894C198.046 16.5108 197.937 15.976 197.929 15.3909L197.749 1.19114C196.19 0.968988 194.612 0.800944 193.016 0.68908C191.421 0.577215 189.835 0.523399 188.261 0.525836L186.1 14.5614C186.006 15.1747 185.805 15.7161 185.527 16.1821C183.239 16.3246 180.988 16.6216 178.785 17.0635C178.389 16.6782 178.052 16.1967 177.802 15.6154ZM228.658 72.3431C227.31 81.0833 223.218 88.8319 217.338 94.757L198.488 73.0635C199.059 72.224 199.526 71.3051 199.868 70.3243L228.658 72.3431ZM189.002 106.802C197.784 106.688 205.976 103.757 212.639 98.8236L193.766 77.1048C192.901 77.5146 191.981 77.8219 191.021 78.012L189.002 106.802ZM186.416 54.8428C185.397 55.0447 184.422 55.3787 183.511 55.8274L164.083 33.4704C170.928 28.3579 179.403 25.366 188.481 25.3865L186.416 54.8428ZM178.85 59.939L159.401 37.5567C153.449 43.6055 149.35 51.5329 148.112 60.465L177.568 62.5305C177.891 61.6069 178.323 60.7382 178.85 59.939ZM229.139 66.1467L200.303 64.1246C200.106 63.13 199.783 62.1773 199.35 61.2851L221.359 42.1608C226.286 48.9321 229.159 57.2494 229.139 66.1467ZM217.331 37.4272L195.268 56.5993C194.452 56.0545 193.562 55.6079 192.615 55.2775L194.677 25.868C203.536 27.2336 211.376 31.419 217.331 37.4272ZM178.072 71.541C177.647 70.6571 177.329 69.7141 177.134 68.7301L147.724 66.6679C147.84 75.6304 150.89 83.9777 156.009 90.7131L178.072 71.541ZM182.143 76.2377L160.134 95.362C166.151 101.186 173.986 105.192 182.799 106.414L184.821 77.5773C183.864 77.2433 182.966 76.7906 182.143 76.2377Z" fill="#1060FF"/>
</svg>
