<svg width="207" height="302" viewBox="0 0 207 302" fill="none" xmlns="http://www.w3.org/2000/svg">
<path fill-rule="evenodd" clip-rule="evenodd" d="M93.1897 88.3927C94.2256 88.4611 96.5288 89.2296 97.4544 91.7565C97.9388 93.079 97.9133 94.8238 97.8859 96.7062C97.8478 99.3197 97.8058 102.199 99.1192 104.581L106.35 124.323C118.792 149.321 144.647 201.558 148.537 210.522C153.4 221.727 155.932 236.921 153.442 250.819C152.87 251.327 150.79 252.686 147.047 254.057L147.046 254.055C143.455 255.405 141.068 255.737 140.312 255.733C128.99 247.008 120.529 234.035 116.518 222.511C113.31 213.291 96.9907 157.482 89.2318 130.73L81.1718 111.299C80.5274 108.666 78.5354 106.549 76.7269 104.627C75.4244 103.243 74.2171 101.96 73.6771 100.658C72.6455 98.1709 73.8376 96.0932 74.5627 95.3652L83.8682 91.8024L83.8698 91.8065L93.1897 88.3927Z" fill="#863102"/>
<path d="M10.0541 43.3413C8.7588 43.1858 7.40051 44.1487 7.03036 44.5468C7.50889 44.3715 9.20269 44.4517 10.0044 45.3187L10.0541 43.3413Z" fill="#772E05"/>
<path d="M10.0044 45.3187C9.20269 44.4517 7.50889 44.3715 7.03036 44.5468C5.33293 46.4434 6.88672 59.4454 12.2328 74.0409C17.51 88.4484 24.6359 99.2726 27.2132 99.8982L29.1021 97.4578C29.2958 93.0629 26.0202 82.7051 21.5911 70.6131C17.162 58.5212 12.9911 48.5487 10.0044 45.3187Z" fill="#772E05"/>
<path d="M29.1021 97.4578L27.2132 99.8982C27.6722 100.01 29.288 100.078 30.3985 98.8843L29.1021 97.4578Z" fill="#772E05"/>
<path fill-rule="evenodd" clip-rule="evenodd" d="M40.0494 98.8231C40.118 98.8166 40.1839 98.8018 40.2471 98.7786C42.8313 97.8321 39.8695 83.2592 33.6318 66.2293C27.7996 50.3066 21.1685 37.8736 18.2186 37.0977C17.0683 36.5757 15.4645 36.546 13.8749 37.1282C11.9354 37.8386 10.0609 40.2051 9.90178 41.3809C7.88669 46.2806 9.76818 59.0332 14.9159 73.087C20.3077 87.8074 27.5131 99.1235 32.222 100.82C33.4323 101.571 35.8063 101.826 37.3636 101.255C38.6432 100.786 39.5999 99.8697 40.0494 98.8231Z" fill="#A1410B"/>
<path d="M23.5357 41.7705C22.6909 40.9745 20.6712 40.6537 20.1243 40.854C18.1059 42.8075 19.8423 55.4897 24.9338 69.3902C29.9598 83.1116 36.5617 93.3423 39.4107 93.7937L41.724 91.4268C42.2114 87.1302 39.1788 77.2337 34.9606 65.7176C30.7424 54.2014 26.683 44.7357 23.5357 41.7705Z" fill="#772E05"/>
<path fill-rule="evenodd" clip-rule="evenodd" d="M39.4107 93.7937L41.724 91.4268L42.3828 92.018L42.0896 93.2759C40.971 93.8507 39.8028 93.8559 39.4107 93.7937Z" fill="#772E05"/>
<path fill-rule="evenodd" clip-rule="evenodd" d="M23.5756 39.9591L22.6125 39.5896C21.4946 39.8474 20.4653 40.535 20.1243 40.854C20.6712 40.6537 22.6909 40.9745 23.5357 41.7705L23.5756 39.9591Z" fill="#772E05"/>
<path fill-rule="evenodd" clip-rule="evenodd" d="M42.0885 93.258C42.9522 91.7429 44.5158 90.5392 46.1176 89.9525C47.6569 89.3887 49.2964 89.5166 50.7474 90.1835L51.314 89.943C51.744 83.4945 49.7649 73.0185 45.6408 61.7591C41.4093 50.2067 35.9867 40.7424 31.4183 36.2255C30.8129 37.911 29.58 39.2761 27.8857 39.8967C26.28 40.4848 24.2648 40.3402 22.6148 39.58C22.0838 45.9942 24.0591 56.653 28.2611 68.125C32.3712 79.3462 37.6052 88.5973 42.0885 93.258Z" fill="#A1410B"/>
<path d="M35.2601 34.1087C33.8089 34.0103 32.2351 35.0522 31.7999 35.474C32.3468 35.2737 34.2503 35.2771 35.113 36.1218L35.2601 34.1087Z" fill="#772E05"/>
<path d="M35.113 36.1218C34.2503 35.2771 32.3468 35.2737 31.7999 35.474C29.8012 37.4811 32.2877 50.1414 37.6338 64.7369C42.911 79.1444 49.0981 90.3124 51.9712 90.8297L54.2106 88.2609C54.6316 83.7828 51.4212 73.4011 46.9921 61.3091C42.563 49.2172 38.3268 39.2686 35.113 36.1218Z" fill="#772E05"/>
<path d="M54.2106 88.2609L51.9712 90.8297C52.4829 90.9219 54.2991 90.9173 55.6045 89.6517L54.2106 88.2609Z" fill="#772E05"/>
<path d="M61.9173 93.7776C57.118 95.5355 48.4149 81.7519 41.6538 63.2932C34.8927 44.8345 32.6338 28.6905 37.4331 26.9326C42.2324 25.1747 52.2724 38.4686 59.0335 56.9273C65.7946 75.386 66.7165 92.0197 61.9173 93.7776Z" fill="#A1410B"/>
<path fill-rule="evenodd" clip-rule="evenodd" d="M95.2077 77.0351L73.6616 18.2115L41.576 29.9639C38.6226 31.0457 41.0517 45.0908 47.0015 61.3345C52.9513 77.5781 60.1687 89.8693 63.1221 88.7875L95.2077 77.0351Z" fill="#863102"/>
<path d="M100.687 79.5767C95.8881 81.3346 87.185 67.5511 80.4239 49.0924C73.6628 30.6336 71.404 14.4896 76.2032 12.7318C81.0025 10.9739 91.0425 24.2677 97.8036 42.7265C104.565 61.1852 105.487 77.8189 100.687 79.5767Z" fill="#A1410B"/>
<path fill-rule="evenodd" clip-rule="evenodd" d="M103.855 71.4664C104.718 69.9512 106.282 68.7475 107.884 68.1608C109.423 67.597 111.062 67.7249 112.513 68.3918L113.08 68.1513C113.51 61.7028 111.531 51.2267 107.407 39.9674C102.929 27.7436 97.1184 17.8577 92.3969 13.6969C91.7329 15.2187 90.5348 16.4411 88.9385 17.0258C87.5777 17.5242 85.9315 17.5147 84.4537 17.0627C83.7003 23.3785 85.6625 34.4172 90.0271 46.3333C94.1373 57.5545 99.3713 66.8057 103.855 71.4664Z" fill="#A1410B"/>
<path d="M95.6435 11.9914C94.3706 11.8277 93.0431 12.7793 92.6822 13.174C93.151 13.0023 94.8148 13.0935 95.6078 13.9637L95.6435 11.9914Z" fill="#772E05"/>
<path d="M95.6078 13.9637C94.8148 13.0935 93.151 13.0023 92.6822 13.174C91.0278 15.0549 93.7853 27.616 99.1313 42.2115C104.409 56.619 110.332 67.8837 112.867 68.5249L114.705 66.1028C114.867 61.7198 111.582 51.3654 107.153 39.2734C102.724 27.1814 98.562 17.2056 95.6078 13.9637Z" fill="#772E05"/>
<path d="M114.705 66.1028L112.867 68.5249C113.318 68.639 114.905 68.7184 115.988 67.5344L114.705 66.1028Z" fill="#772E05"/>
<path fill-rule="evenodd" clip-rule="evenodd" d="M118.738 71.0323C115.631 69.5089 109.035 56.8324 103.151 40.7678C97.5766 25.5485 94.4538 12.2381 95.3205 8.18428C95.5456 6.69033 96.918 5.18781 98.9015 4.46128C100.521 3.86812 102.163 3.93295 103.33 4.51826C106.307 5.37353 113.129 18.3326 119.194 34.8916C125.078 50.9562 128.231 64.8939 126.843 68.0636C126.4 69.3586 125.134 70.5841 123.402 71.2183C121.671 71.8526 119.913 71.7345 118.738 71.0323Z" fill="#A1410B"/>
<path d="M109.401 8.15396C108.135 8.01094 106.802 8.94727 106.438 9.33332C106.907 9.16162 107.842 9.33294 108.621 10.1651L109.401 8.15396Z" fill="#772E05"/>
<path d="M108.621 10.1651C107.842 9.33294 106.907 9.16162 106.438 9.33332C104.768 11.1724 107.363 23.2881 112.51 37.3404C117.59 51.2116 123.352 62.0354 125.868 62.6251L127.094 60.5982C127.307 56.3571 124.795 46.0442 120.531 34.4023C116.267 22.7604 111.523 13.2651 108.621 10.1651Z" fill="#772E05"/>
<path d="M127.094 60.5982L125.868 62.6251C126.316 62.7301 127.896 62.7877 128.988 61.6296L127.094 60.5982Z" fill="#772E05"/>
<ellipse cx="119.194" cy="34.8915" rx="28.4752" ry="4.27128" transform="rotate(69.8831 119.194 34.8915)" fill="#A2410B"/>
<path fill-rule="evenodd" clip-rule="evenodd" d="M104.337 70.7174C100.481 68.0725 95.0552 57.9908 90.4506 45.4197C85.8461 32.8487 83.4762 21.6479 84.7115 17.138C83.7338 16.5491 82.8714 16.3544 82.1728 16.6103C81.4562 16.8728 80.9645 17.5901 80.6791 18.689C79.4942 23.2515 81.8632 34.3933 86.4401 46.8888C92.1194 62.3941 99.0478 74.1123 102.74 72.7601C103.438 72.5042 103.971 71.7985 104.337 70.7174Z" fill="#772E05"/>
<path fill-rule="evenodd" clip-rule="evenodd" d="M89.8602 78.9939L89.8478 78.9985L71.1672 85.8409C71.1593 85.8437 71.1514 85.8466 71.1434 85.8495C68.9284 86.6608 67.9001 89.4135 68.8466 91.9977C69.7932 94.5819 72.3562 96.0191 74.5712 95.2078C74.5713 95.2078 74.5713 95.2077 74.5713 95.2077L74.5714 95.2078L93.288 88.3522L93.288 88.3522C95.503 87.5409 96.5313 84.7882 95.5848 82.204C94.6382 79.6198 92.0752 78.1826 89.8602 78.9939Z" fill="#A1410B"/>
<circle cx="153.128" cy="267.838" r="12.102" transform="rotate(69.8831 153.128 267.838)" fill="#863102"/>
<path fill-rule="evenodd" clip-rule="evenodd" d="M156.165 258.387L156.165 258.387C158.538 257.518 159.804 255.017 158.993 252.802C158.181 250.587 155.6 249.496 153.226 250.365L153.2 250.375L141.8 254.551C141.789 254.555 141.778 254.559 141.767 254.563C139.394 255.432 138.128 257.932 138.939 260.147C139.75 262.363 142.332 263.453 144.705 262.584C144.705 262.584 144.705 262.584 144.705 262.584L144.705 262.584L156.165 258.387Z" fill="#A1410B"/>
</svg>
