<svg width="15" height="12" viewBox="0 0 15 12" fill="none" xmlns="http://www.w3.org/2000/svg">
<path fill-rule="evenodd" clip-rule="evenodd" d="M0 0.75C0 0.335786 0.335786 0 0.75 0H14.25C14.6642 0 15 0.335786 15 0.75C15 1.16421 14.6642 1.5 14.25 1.5H0.75C0.335786 1.5 0 1.16421 0 0.75ZM0 5.75C0 5.33579 0.335786 5 0.75 5H14.25C14.6642 5 15 5.33579 15 5.75C15 6.16421 14.6642 6.5 14.25 6.5H0.75C0.335786 6.5 0 6.16421 0 5.75ZM0.75 10C0.335786 10 0 10.3358 0 10.75C0 11.1642 0.335786 11.5 0.75 11.5H14.25C14.6642 11.5 15 11.1642 15 10.75C15 10.3358 14.6642 10 14.25 10H0.75Z" fill="#081226"/>
</svg>
