<svg width="297" height="294" viewBox="0 0 297 294" fill="none" xmlns="http://www.w3.org/2000/svg">
<path d="M7.17518 11.3052C5.91204 63.6597 25.5961 118.249 35.596 138.999C79.2799 142.723 163.174 129.741 124.016 86.3254C84.8588 42.9094 27.7014 21.4143 7.17518 11.3052Z" fill="#EFEFEF"/>
<path fill-rule="evenodd" clip-rule="evenodd" d="M0.328627 0L10.3195 4.92048C13.1867 6.33259 16.8889 8.01107 21.2466 9.98674C46.7865 21.566 94.8438 43.354 129.301 81.5587C139.894 93.303 144.025 105.163 139.428 116.144C135.202 126.24 124.581 132.732 113.406 136.991C90.5539 145.698 57.5063 148.01 34.9913 146.091L30.9467 145.746L29.1845 142.089C18.906 120.761 -1.24005 65.0179 0.0600091 11.1336L0.328627 0ZM14.3326 22.5015C15.699 66.9685 30.9604 111.453 40.2828 132.198C61.1762 133.402 89.3767 130.914 108.338 123.689C118.701 119.74 124.443 115.08 126.298 110.647C127.783 107.1 127.718 101.056 118.731 91.0921C86.5144 55.3717 41.803 35.0111 15.9271 23.2278C15.3873 22.982 14.8557 22.7399 14.3326 22.5015Z" fill="#C2C2C2"/>
<path d="M288.915 11.3052C290.178 63.6597 270.494 118.249 260.494 138.999C216.81 142.723 132.916 129.741 172.074 86.3254C211.231 42.9094 268.389 21.4143 288.915 11.3052Z" fill="#EFEFEF"/>
<path fill-rule="evenodd" clip-rule="evenodd" d="M295.761 0L296.03 11.1336C297.33 65.0179 277.184 120.761 266.905 142.089L265.143 145.746L261.098 146.091C238.583 148.01 205.536 145.698 182.684 136.991C171.508 132.732 160.888 126.24 156.661 116.144C152.064 105.163 156.196 93.303 166.788 81.5587C201.246 43.354 249.303 21.566 274.843 9.98674C279.201 8.01107 282.903 6.3326 285.77 4.92048L295.761 0ZM280.163 23.2278C254.287 35.0111 209.575 55.3717 177.358 91.0921C168.372 101.056 168.306 107.1 169.791 110.647C171.647 115.08 177.388 119.74 187.752 123.689C206.713 130.914 234.913 133.402 255.807 132.198C265.129 111.453 280.391 66.9686 281.757 22.5015C281.234 22.7399 280.702 22.982 280.163 23.2278Z" fill="#C2C2C2"/>
<path d="M280.244 177.547C280.244 248.953 148.444 283.94 148.444 283.94C148.444 283.94 16.6437 253.935 16.6438 177.547C16.6438 108.763 75.6526 53.0017 148.444 53.0017C221.235 53.0017 280.244 108.763 280.244 177.547Z" fill="#C2C2C2"/>
<path d="M0.764893 195.734C9.65741 194.451 17.703 187.181 19.8203 184.508C26.1721 178.093 42.0516 165.263 56.3432 165.263C70.6347 165.263 80.1624 166.867 92.866 176.489C108.373 188.235 130.977 222.998 146.856 272.713L132.565 282.336C89.6901 259.884 42.5809 257.211 26.1721 255.072C26.1721 247.054 29.348 243.846 32.5239 239.035C26.1721 239.035 8.70464 232.62 7.11669 229.413C7.11669 224.601 10.2926 213.375 11.8805 210.168C4.25838 206.319 1.29421 198.942 0.764893 195.734Z" fill="#EFEFEF"/>
<path d="M296.124 195.735C287.231 194.452 279.185 187.182 277.068 184.509C270.716 178.094 254.837 165.264 240.545 165.264C226.254 165.264 216.726 166.868 204.022 176.49C188.516 188.236 165.912 222.999 150.032 272.714L164.324 282.337C207.198 259.885 254.308 257.212 270.716 255.073C270.716 247.055 267.54 243.847 264.365 239.036C270.716 239.036 288.184 232.621 289.772 229.414C289.772 224.602 286.596 213.376 285.008 210.169C292.63 206.32 295.594 198.943 296.124 195.735Z" fill="#EFEFEF"/>
<path d="M153.569 292.563C150.999 294.479 147.476 294.479 144.905 292.564L133.018 283.704C127.424 279.535 130.372 270.644 137.349 270.644H161.121C168.098 270.644 171.047 279.534 165.453 283.703L153.569 292.563Z" fill="#081226"/>
<path fill-rule="evenodd" clip-rule="evenodd" d="M97.441 168.014C98.577 169.619 98.198 171.84 96.5945 172.975C91.3853 176.664 84.279 179.622 76.9838 181.634C69.6653 183.653 61.8792 184.796 55.1942 184.684C53.2293 184.651 51.6625 183.031 51.6947 181.065C51.7269 179.1 53.3459 177.534 55.3108 177.567C61.1829 177.666 68.2825 176.65 75.0887 174.773C81.9184 172.889 88.176 170.214 92.4806 167.165C94.0841 166.03 96.3049 166.41 97.441 168.014Z" fill="#081226"/>
<path fill-rule="evenodd" clip-rule="evenodd" d="M197.31 168.014C196.174 169.619 196.553 171.84 198.156 172.975C203.366 176.664 210.472 179.622 217.767 181.634C225.086 183.653 232.872 184.796 239.557 184.684C241.522 184.651 243.088 183.031 243.056 181.065C243.024 179.1 241.405 177.534 239.44 177.567C233.568 177.666 226.468 176.65 219.662 174.773C212.833 172.889 206.575 170.214 202.27 167.165C200.667 166.03 198.446 166.41 197.31 168.014Z" fill="#081226"/>
<path d="M94.99 194.319H73.2458V250.492H94.99V194.319Z" fill="#3AD0FF"/>
<path fill-rule="evenodd" clip-rule="evenodd" d="M86.1088 194.959C90.3136 195.767 93.8894 198.593 95.8632 200.993C96.6434 201.942 98.0449 202.079 98.9937 201.299C99.9424 200.518 100.079 199.117 99.2989 198.168C96.883 195.23 92.4634 191.651 86.9484 190.591C81.2303 189.492 74.7387 191.182 68.6339 198.11C67.8219 199.032 67.9107 200.438 68.8324 201.25C69.754 202.062 71.1594 201.973 71.9714 201.051C77.1542 195.169 82.107 194.19 86.1088 194.959Z" fill="#081226"/>
<path d="M87.3795 225.648C90.8586 227.933 93.9028 226.6 94.99 225.648V213.701C93.9028 214.653 90.8586 215.986 87.3795 213.701C83.9004 211.416 80.8563 212.749 79.769 213.701C79.0442 214.245 77.1597 215.251 75.4202 214.925C73.6807 214.599 73.2458 214.245 73.2458 214.109V226.056C73.2458 226.192 73.6807 226.545 75.4202 226.872C77.1597 227.198 79.0442 226.192 79.769 225.648C80.8563 224.696 83.9004 223.363 87.3795 225.648Z" fill="white" fill-opacity="0.5"/>
<path d="M94.5372 257.638C96.8634 257.165 98.6143 255.109 98.6143 252.643C98.6143 249.829 96.3326 247.547 93.518 247.547C93.1487 247.547 92.7887 247.586 92.4418 247.661C91.9969 244.148 88.9976 241.431 85.3639 241.431C83.2218 241.431 81.3003 242.375 79.9925 243.87C79.4588 243.613 78.8607 243.47 78.2291 243.47C76.5338 243.47 75.0801 244.505 74.4653 245.977C73.7413 245.675 72.9469 245.508 72.1135 245.508C68.736 245.508 65.9979 248.246 65.9979 251.624C65.9979 255.002 68.736 257.74 72.1135 257.74H94.5372V257.638Z" fill="white"/>
<path d="M203.711 194.319H225.455V250.492H203.711V194.319Z" fill="#3AD0FF"/>
<path fill-rule="evenodd" clip-rule="evenodd" d="M212.593 194.959C208.388 195.767 204.812 198.593 202.838 200.994C202.058 201.942 200.657 202.079 199.708 201.299C198.759 200.519 198.623 199.117 199.403 198.168C201.819 195.231 206.238 191.651 211.753 190.591C217.471 189.492 223.963 191.182 230.068 198.111C230.88 199.032 230.791 200.438 229.869 201.25C228.948 202.062 227.542 201.973 226.73 201.051C221.547 195.169 216.595 194.19 212.593 194.959Z" fill="#081226"/>
<path d="M211.321 225.648C207.842 227.933 204.798 226.6 203.711 225.648V213.701C204.798 214.653 207.842 215.986 211.321 213.701C214.8 211.416 217.845 212.749 218.932 213.701C219.657 214.245 221.541 215.251 223.281 214.925C225.02 214.599 225.455 214.245 225.455 214.109V226.056C225.455 226.192 225.02 226.545 223.281 226.872C221.541 227.198 219.657 226.192 218.932 225.648C217.845 224.696 214.8 223.363 211.321 225.648Z" fill="white" fill-opacity="0.5"/>
<path d="M202.352 257.638C200.026 257.166 198.275 255.109 198.275 252.643C198.275 249.829 200.557 247.547 203.372 247.547C203.741 247.547 204.101 247.587 204.448 247.661C204.893 244.148 207.892 241.432 211.526 241.432C213.668 241.432 215.589 242.376 216.897 243.87C217.431 243.614 218.029 243.47 218.661 243.47C220.356 243.47 221.81 244.505 222.424 245.977C223.148 245.675 223.943 245.509 224.776 245.509C228.154 245.509 230.892 248.247 230.892 251.624C230.892 255.002 228.154 257.74 224.776 257.74H202.352V257.638Z" fill="white"/>
</svg>
