<svg width="257" height="647" viewBox="0 0 257 647" fill="none" xmlns="http://www.w3.org/2000/svg">
<rect width="25" height="549" transform="matrix(-1 0 0 1 25 98)" fill="#A7B2D7"/>
<rect width="25" height="70" transform="matrix(-1 0 0 1 199 94)" fill="#A7B2D7"/>
<path fill-rule="evenodd" clip-rule="evenodd" d="M99.5 0C44.5477 0 0 44.5477 0 99.5H25.0016C25.2688 58.3088 58.5205 25 99.5 25C140.48 25 173.731 58.3088 173.998 99.5H199C199 44.5477 154.452 0 99.5 0Z" fill="#A7B2D7"/>
<path fill-rule="evenodd" clip-rule="evenodd" d="M154 148C154 129.775 168.775 115 187 115C205.225 115 220 129.775 220 148H154Z" fill="#FAF7F2"/>
<ellipse rx="70" ry="8" transform="matrix(-1 0 0 1 187 153)" fill="#C3C1CF"/>
<circle r="9.5" transform="matrix(-1 0 0 1 186.5 205.5)" fill="#FFF4CE"/>
<path fill-rule="evenodd" clip-rule="evenodd" d="M154 155C154 153.895 168.775 153 187 153C205.225 153 220 153.895 220 155V205H154V155Z" fill="#F7F1E8"/>
<rect width="183" height="292" transform="matrix(-1 0 0 1 220 282)" fill="#132C64"/>
<path d="M80.0511 331.562C86.0511 325.562 100.551 325.396 107.051 326.062C114.551 317.062 123.051 321.562 127.051 319.562C130.251 317.962 133.051 317.896 134.051 318.062L127.051 328.562C136.651 330.962 147.218 336.396 151.051 338.562C152.051 340.062 146.551 343.062 143.551 338.562C141.151 334.962 135.218 334.062 132.551 334.062L134.551 336.062V339.562C138.951 339.962 143.051 342.062 144.551 343.062H151.051C159.884 346.729 177.451 354.262 177.051 355.062C176.651 355.862 168.218 359.062 164.051 360.562C164.051 353.362 150.384 351.896 143.551 352.062C106.051 327.562 87.051 341.062 79.0511 350.062C78.2511 340.462 87.0511 333.396 91.5511 331.062C87.1511 329.862 82.0511 330.896 80.0511 331.562Z" fill="#FAF7F2"/>
<path d="M94.051 372.562C94.7177 362.562 103.551 344.262 133.551 351.062C111.051 335.062 69.051 348.062 94.051 372.562Z" fill="#FAF7F2"/>
<path d="M142.551 372.062C134.551 355.062 117.551 362.562 120.051 376.062C94.2807 370.562 111.051 347.562 136.051 357.062C136.851 364.662 149.218 365.562 155.551 365.062L156.551 368.562C151.351 368.562 145.051 370.896 142.551 372.062Z" fill="#FAF7F2"/>
<rect x="69" y="405" width="119" height="25" fill="#FAF7F2"/>
<path fill-rule="evenodd" clip-rule="evenodd" d="M208 411H183V436H208L192 423.5L208 411Z" fill="#FAF7F2"/>
<path fill-rule="evenodd" clip-rule="evenodd" d="M49 411H74V436H49L65 423.5L49 411Z" fill="#FAF7F2"/>
<path d="M70 430H74V436L70 430Z" fill="#C4C4C4"/>
<path d="M187 430H183V436L187 430Z" fill="#C4C4C4"/>
<rect x="69" y="456" width="119" height="25" fill="#FAF7F2"/>
<path fill-rule="evenodd" clip-rule="evenodd" d="M208 462H183V487H208L192 474.5L208 462Z" fill="#FAF7F2"/>
<path fill-rule="evenodd" clip-rule="evenodd" d="M49 462H74V487H49L65 474.5L49 462Z" fill="#FAF7F2"/>
<path d="M70 481H74V487L70 481Z" fill="#C4C4C4"/>
<path d="M187 481H183V487L187 481Z" fill="#C4C4C4"/>
<rect x="69" y="507" width="119" height="25" fill="#FAF7F2"/>
<path fill-rule="evenodd" clip-rule="evenodd" d="M208 513H183V538H208L192 525.5L208 513Z" fill="#FAF7F2"/>
<path fill-rule="evenodd" clip-rule="evenodd" d="M49 513H74V538H49L65 525.5L49 513Z" fill="#FAF7F2"/>
<path d="M70 532H74V538L70 532Z" fill="#C4C4C4"/>
<path d="M187 532H183V538L187 532Z" fill="#C4C4C4"/>
<path d="M12 293C16.6044 293 20.9951 292.616 25 291.921V284C20.9951 284.695 16.6044 285.079 12 285.079C7.77582 285.079 3.73154 284.756 0 284.166V292.087C3.73154 292.677 7.77582 293 12 293Z" fill="#7B86AB"/>
<path d="M12 573C16.6044 573 20.9951 572.616 25 571.921V564C20.9951 564.695 16.6044 565.079 12 565.079C7.77582 565.079 3.73154 564.756 0 564.166V572.087C3.73154 572.677 7.77582 573 12 573Z" fill="#7B86AB"/>
<rect width="12" height="4" transform="matrix(-1 0 0 1 37 286)" fill="#7B86AB"/>
<rect width="12" height="4" transform="matrix(-1 0 0 1 37 566)" fill="#7B86AB"/>
</svg>
