<svg width="52" height="52" viewBox="0 0 52 52" fill="none" xmlns="http://www.w3.org/2000/svg">
<circle cx="25.9999" cy="26" r="24.5385" stroke="#081226"/>
<mask id="mask0" style="mask-type:alpha" maskUnits="userSpaceOnUse" x="1" y="1" width="50" height="50">
<circle cx="25.9999" cy="26" r="23.5385" fill="#0E2344" stroke="black"/>
</mask>
<g mask="url(#mask0)">
<path fill-rule="evenodd" clip-rule="evenodd" d="M10.6964 16.2644C10.1073 16.3527 9.86179 17.2327 9.81269 17.6618C9.77178 17.6658 9.73018 17.6686 9.68859 17.6713C9.48061 17.6849 9.27263 17.6985 9.14988 17.8824C9.00259 18.0663 9.03941 18.6178 9.14988 18.9488C9.17128 19.0129 9.20649 19.117 9.24962 19.2445C9.4292 19.7755 9.74618 20.7127 9.77587 20.861C9.81269 21.0448 9.95998 21.7803 10.0704 22.1848C10.1162 22.3523 10.162 22.4126 10.2156 22.4832C10.2914 22.5831 10.3829 22.7037 10.5123 23.1776C10.5123 23.302 10.3919 23.5639 10.2675 23.8345C10.1344 24.1237 9.9968 24.423 9.9968 24.575C9.84951 24.8324 9.84951 28.1051 10.3282 28.9509C10.4086 29.0714 10.4561 29.2577 10.5067 29.4558C10.5487 29.6206 10.5928 29.7935 10.6596 29.9438C10.6964 30.0296 10.7619 30.1603 10.8369 30.3101C10.9869 30.6097 11.1751 30.9856 11.2488 31.2308C11.3592 31.5985 12.869 33.3636 13.1267 33.5842C13.1563 33.6095 13.1935 33.6406 13.2374 33.6772C13.577 33.9603 14.3158 34.5763 14.9679 35.4229C14.9902 35.5122 15.0066 35.588 15.0218 35.6584C15.0815 35.9359 15.1235 36.1308 15.4466 36.7467C15.4839 36.8088 15.5044 36.8794 15.5295 36.9655C15.5784 37.134 15.6447 37.362 15.8884 37.7027C15.991 37.9809 16.1462 38.2123 16.3073 38.4529C16.5511 38.8167 16.8087 39.2011 16.9195 39.7988C16.9839 39.8952 17.0131 39.9846 17.044 40.0792C17.0838 40.2012 17.1265 40.3318 17.2509 40.4975C17.4718 40.7916 17.5823 43.8437 17.2509 44.0276C16.6863 44.0031 15.5276 43.9688 15.4097 44.0276C15.3993 44.0328 15.3855 44.0395 15.3687 44.0477C15.1486 44.1547 14.4105 44.5133 13.8632 45.094C13.2495 45.1063 11.8969 45.1087 11.3961 45.0205C10.7701 44.9101 15.0415 47.6344 16.9195 48.2963C17.3182 48.4368 17.5032 48.5314 17.8595 48.6796C19.1814 49.2293 20.6239 49.9231 24.4236 50.2127C28.2718 50.5061 30.6547 49.7423 31.6339 49.4988C31.8821 49.437 32.0454 49.3964 32.1273 49.3964C32.4513 49.3964 35.8218 48.0726 37.4666 47.4107L38.9763 46.4178C38.3666 45.6628 38.1769 45.1498 38.0648 44.8466C38.0076 44.6921 37.9706 44.5921 37.9085 44.5424C37.7625 44.4258 37.7091 44.1242 37.6749 43.931C37.666 43.8805 37.6583 43.8374 37.6507 43.807C37.6355 43.746 37.5823 43.5905 37.52 43.4082C37.4319 43.1505 37.3256 42.8393 37.2825 42.667C37.2271 42.363 37.1879 42.1097 37.1551 41.8974C37.0569 41.2624 37.0153 40.9938 36.767 40.8284C36.6546 40.7611 36.556 40.7021 36.4691 40.6502C35.9783 40.3569 35.8618 40.2873 35.7638 40.1975C35.7334 40.1696 35.7046 40.1397 35.667 40.1005C35.6364 40.0687 35.5999 40.0307 35.5518 39.9826C35.2204 39.9459 34.6312 37.9969 35.0363 38.4382C36.7273 40.5739 38.8863 40.4649 40.7835 39.5834C42.2575 38.8986 43.5735 37.7474 44.3893 36.8202C42.6954 37.0776 39.131 37.5189 38.424 37.2247C37.5402 36.857 36.5092 35.9009 35.1836 33.6945C33.858 31.4882 33.0479 30.9734 32.2378 30.8998C31.5897 30.841 31.3786 30.7282 31.354 30.6792C30.8753 30.1276 30.102 29.9371 29.7338 29.8702C28.3185 29.6132 27.8023 29.6306 27.3344 29.6464C26.9988 29.6577 26.6881 29.6682 26.0884 29.576C24.8356 29.3836 23.9751 28.7993 23.5803 28.5312C23.5225 28.492 23.4747 28.4596 23.4371 28.4361C22.717 27.8439 22.2284 27.5558 21.8521 27.3339C21.5741 27.1701 21.3575 27.0423 21.1541 26.8549C19.8285 25.5016 18.687 24.7711 18.2819 24.575C16.9931 24.0234 16.5881 23.5086 16.5881 23.5086C16.5881 23.5086 16.4408 22.8834 16.5513 22.9938C17.2141 23.2879 17.5087 23.0673 17.5087 22.9938C17.1988 22.1172 16.4727 21.6925 15.9775 21.4029C15.7664 21.2794 15.5973 21.1805 15.5202 21.0816C15.3913 20.9161 15.3545 20.861 15.3361 20.8334C15.3306 20.8251 15.3267 20.8193 15.3225 20.8138C15.3127 20.8008 15.3011 20.7893 15.2625 20.7506C14.395 19.2543 14.2406 19.201 13.8482 19.0655C13.6909 19.0113 13.4954 18.9438 13.2004 18.7649C12.1693 18.1398 11.2856 16.9631 11.212 16.8528C11.1751 16.8282 11.1383 16.7547 11.0947 16.6675C11.0074 16.4932 10.8928 16.2644 10.6964 16.2644ZM37.4666 47.4107C36.7007 47.1753 34.2753 46.8468 33.1583 46.712C33.0629 46.5849 33.0774 45.6347 33.0831 45.2598C33.084 45.2006 33.0847 45.1558 33.0847 45.1308C33.0847 45.0622 33.1052 44.8142 33.129 44.5266C33.169 44.0436 33.2182 43.4486 33.1951 43.4025C33.1657 43.3436 33.0847 43.2799 33.0479 43.2554C32.1347 42.5494 32.0536 41.2697 32.1273 40.7181C32.1536 40.797 33.0648 41.1579 33.6358 41.384C33.8634 41.4742 34.0369 41.5429 34.0789 41.5639C34.1894 41.5271 34.9258 42.0787 35.0731 42.2258C35.0731 42.2852 35.255 42.5156 35.44 42.75C35.5982 42.9504 35.7586 43.1537 35.8096 43.2554C35.9047 43.4454 36.4093 44.2623 36.7357 44.7909C36.7884 44.8762 36.8365 44.954 36.8774 45.0205C37.1131 45.4029 37.3684 46.7733 37.4666 47.4107ZM21.3014 41.7109C21.7727 43.0936 21.3996 44.2973 21.1541 44.7263C20.9823 44.6405 20.6018 44.4689 20.4545 44.4689C19.4186 44.4689 19.4072 44.4405 19.3445 44.2837C19.3359 44.2621 19.3263 44.2381 19.313 44.2115C19.2353 44.0563 19.2669 43.6464 19.2925 43.3146C19.3032 43.1746 19.313 43.0485 19.313 42.9612C19.313 42.667 19.313 40.3504 19.4234 39.7252C19.5705 38.8193 19.4728 38.5818 19.391 38.3831C19.35 38.2834 19.313 38.1935 19.313 38.0337C19.3866 37.2247 20.4913 37.1512 20.6386 37.7027C20.6531 37.8258 20.6651 37.9288 20.6752 38.0159L20.6753 38.0166C20.7161 38.3677 20.7267 38.4581 20.7484 38.5457C20.7559 38.5761 20.7647 38.6062 20.7767 38.6467C20.8085 38.7544 20.862 38.936 20.97 39.3943C21.148 40.1497 21.1781 40.5427 21.2065 40.9138C21.2252 41.157 21.2431 41.3908 21.3014 41.7109ZM31.3908 46.1972C31.3417 45.4862 31.1699 44.0423 30.8753 43.9541C30.5071 43.8437 28.04 41.8213 27.4876 41.0858C26.9353 40.3504 26.0884 38.2176 26.0884 37.9234C26.0884 37.6292 25.6833 37.0041 24.8732 37.1512C24.6154 37.1512 23.8053 37.2615 23.3266 37.7027C23.019 37.9864 23.0612 38.4523 23.111 39.0029C23.1388 39.3089 23.1688 39.6411 23.1425 39.9826C23.3266 40.7181 23.5108 43.5128 23.3266 43.9541C23.1425 44.3953 22.9952 45.2411 23.5844 45.3146C23.8686 45.3501 24.4098 45.3257 24.9064 45.3033C25.4393 45.2793 25.9207 45.2575 25.9779 45.3146C26.0065 45.3432 26.0747 45.3694 26.1799 45.4097C26.4807 45.5248 27.0838 45.7558 27.9295 46.4914C28.1504 46.5404 28.8206 46.5796 29.7338 46.3443C30.2641 46.2266 31.0594 46.1972 31.3908 46.1972Z" fill="#081226"/>
<path d="M44.3893 36.8202C43.5735 37.7474 42.2575 38.8986 40.7835 39.5834C42.9585 38.6757 44.0936 37.3631 44.3893 36.8202Z" fill="#081226"/>
</g>
</svg>
