<svg width="446" height="379" viewBox="0 0 446 379" fill="none" xmlns="http://www.w3.org/2000/svg">
<path d="M142.11 39.4403C141.401 68.7877 152.453 99.3878 158.067 111.019C182.594 113.107 229.697 105.83 207.711 81.493C185.726 57.1561 153.635 45.107 142.11 39.4403Z" fill="#EFEFEF" stroke="#C2C2C2" stroke-width="9"/>
<path d="M300.296 39.4403C301.005 68.7877 289.953 99.3878 284.338 111.019C259.812 113.107 212.709 105.83 234.694 81.493C256.679 57.1561 288.771 45.107 300.296 39.4403Z" fill="#EFEFEF" stroke="#C2C2C2" stroke-width="9"/>
<path d="M295.427 132.628C295.427 172.655 221.427 192.266 221.427 192.266C221.427 192.266 147.427 175.447 147.427 132.628C147.427 94.0705 180.558 62.8136 221.427 62.8136C262.296 62.8136 295.427 94.0705 295.427 132.628Z" fill="#C2C2C2"/>
<path d="M138.511 142.823C143.504 142.103 148.021 138.028 149.21 136.53C152.776 132.934 161.692 125.742 169.716 125.742C177.74 125.742 183.089 126.641 190.222 132.035C198.928 138.619 211.62 158.105 220.535 185.974L212.511 191.367C188.439 178.782 161.989 177.283 152.776 176.085C152.776 171.59 154.559 169.792 156.342 167.095C152.776 167.095 142.969 163.499 142.077 161.701C142.077 159.004 143.861 152.711 144.752 150.913C140.473 148.756 138.808 144.621 138.511 142.823Z" fill="#EFEFEF"/>
<path d="M304.343 142.823C299.35 142.103 294.833 138.028 293.644 136.53C290.078 132.934 281.162 125.742 273.138 125.742C265.114 125.742 259.764 126.641 252.632 132.035C243.925 138.619 231.234 158.105 222.318 185.974L230.343 191.367C254.415 178.782 280.865 177.283 290.078 176.085C290.078 171.59 288.294 169.792 286.511 167.095C290.078 167.095 299.885 163.499 300.776 161.701C300.776 159.004 298.993 152.711 298.102 150.913C302.381 148.756 304.045 144.621 304.343 142.823Z" fill="#EFEFEF"/>
<path d="M224.26 197.133C222.843 198.188 220.901 198.188 219.484 197.133L212.616 192.022C209.526 189.723 211.152 184.813 215.004 184.813H228.739C232.59 184.813 234.216 189.722 231.127 192.022L224.26 197.133Z" fill="#081226"/>
<ellipse cx="182.198" cy="147.318" rx="6.24097" ry="7.19182" fill="#081226"/>
<ellipse cx="258.873" cy="147.318" rx="6.24097" ry="7.19182" fill="#081226"/>
<path d="M169.711 133.565C169.711 133.565 172 131.919 178.5 130.186C185 128.453 189.117 128.727 189.117 128.727" stroke="#081226" stroke-width="5" stroke-linecap="round"/>
<path d="M271.406 133.404C271.406 133.404 269.117 131.758 262.617 130.024C256.117 128.291 252 128.565 252 128.565" stroke="#081226" stroke-width="5" stroke-linecap="round"/>
<path fill-rule="evenodd" clip-rule="evenodd" d="M51.0582 153.94C50.5278 153.94 50.019 154.151 49.644 154.526C49.2689 154.901 49.0582 155.41 49.0582 155.94L49.0582 248.116L35.7868 234.874C35.0049 234.094 33.7386 234.095 32.9584 234.877C32.1782 235.659 32.1796 236.925 32.9615 237.705L49.6455 254.353C49.837 254.544 50.0576 254.688 50.2931 254.786C50.4987 254.871 50.7217 254.923 50.9553 254.935C50.9894 254.937 51.0237 254.937 51.0582 254.937C51.3551 254.937 51.6369 254.873 51.8902 254.757C52.0534 254.682 52.2086 254.584 52.351 254.463C52.3966 254.425 52.4404 254.384 52.4824 254.342L69.1548 237.705C69.9367 236.925 69.9381 235.659 69.1579 234.877C68.3777 234.095 67.1113 234.094 66.3294 234.874L53.0582 248.116L53.0582 157.94L124.468 157.94C125.572 157.94 126.468 157.045 126.468 155.94C126.468 154.836 125.572 153.94 124.468 153.94H51.0582Z" fill="#081226"/>
<path fill-rule="evenodd" clip-rule="evenodd" d="M223.902 215.647C223.902 214.542 223.007 213.647 221.902 213.647C220.798 213.647 219.902 214.542 219.902 215.647V248.116L206.631 234.874C205.849 234.094 204.583 234.095 203.802 234.877C203.022 235.659 203.024 236.925 203.805 237.705L220.477 254.341C220.526 254.391 220.578 254.438 220.633 254.483C220.754 254.583 220.884 254.666 221.021 254.733C221.286 254.864 221.586 254.937 221.902 254.937C222.212 254.937 222.505 254.867 222.767 254.741C222.92 254.668 223.066 254.574 223.2 254.46C223.243 254.422 223.285 254.383 223.325 254.343L239.999 237.705C240.781 236.925 240.782 235.659 240.002 234.877C239.222 234.095 237.955 234.094 237.173 234.874L223.902 248.116V215.647Z" fill="#081226"/>
<path fill-rule="evenodd" clip-rule="evenodd" d="M319 153.44C317.895 153.44 317 154.336 317 155.44C317 156.545 317.895 157.44 319 157.44L391 157.44L391 248.37L377.475 234.874C376.693 234.094 375.426 234.095 374.646 234.877C373.866 235.659 373.867 236.925 374.649 237.705L391.333 254.353C392.114 255.132 393.378 255.132 394.159 254.353L410.843 237.705C411.625 236.925 411.626 235.659 410.846 234.877C410.066 234.095 408.799 234.094 408.017 234.874L395 247.863L395 155.44C395 154.336 394.105 153.44 393 153.44H319Z" fill="#081226"/>
<path fill-rule="evenodd" clip-rule="evenodd" d="M42.7338 285.177L38.3727 275.016C35.9655 275.631 33.6226 276.418 31.3593 277.364L33.9864 288.102C34.1074 288.596 34.1201 289.069 34.0461 289.506C32.4818 290.271 30.974 291.138 29.5321 292.099C29.1124 291.941 28.7068 291.689 28.3376 291.329L20.4295 283.62C18.454 285.101 16.5873 286.723 14.8452 288.472L21.3754 297.379C21.6802 297.795 21.8736 298.231 21.9714 298.669C20.8186 299.963 19.7495 301.335 18.7733 302.777C18.3301 302.789 17.8644 302.711 17.3915 302.522L7.12559 298.422C5.87259 300.531 4.76629 302.741 3.82172 305.039L13.2745 310.776C13.6951 311.031 14.0294 311.343 14.2831 311.69C13.7037 313.338 13.2306 315.039 12.8725 316.786C12.4833 316.95 12.0447 317.046 11.5621 317.052L0.517532 317.192C0.344743 318.405 0.214039 319.632 0.127032 320.873C0.0400237 322.114 -0.00183366 323.347 6.15568e-05 324.572L10.9169 326.253C11.3667 326.322 11.7667 326.464 12.1148 326.662C12.2043 328.49 12.4206 330.288 12.7555 332.048C12.4752 332.31 12.1363 332.535 11.7366 332.706L1.57585 337.068C2.19048 339.475 2.97753 341.818 3.92393 344.081L14.6616 341.454C15.0515 341.358 15.4273 341.33 15.7832 341.359C16.58 343.05 17.4949 344.677 18.5181 346.229C18.3641 346.534 18.156 346.829 17.8887 347.103L10.1795 355.011C11.6603 356.986 13.2824 358.853 15.0319 360.595L23.9385 354.065C24.2186 353.86 24.5084 353.705 24.8015 353.596C26.2126 354.888 27.7202 356.079 29.3134 357.156C29.2777 357.448 29.2022 357.747 29.0817 358.049L24.9817 368.315C27.0908 369.568 29.3009 370.674 31.5989 371.619L37.3353 362.166C37.4868 361.916 37.6582 361.697 37.845 361.507C39.6726 362.17 41.5666 362.702 43.5166 363.091C43.5751 363.338 43.608 363.601 43.6115 363.878L43.7521 374.923C44.9646 375.096 46.1919 375.226 47.4327 375.313C48.6736 375.4 49.9071 375.442 51.1318 375.44L52.8124 364.523C52.8511 364.272 52.9125 364.037 52.9937 363.817C55.014 363.728 56.9988 363.484 58.9356 363.096C59.0603 363.28 59.1714 363.483 59.2662 363.704L63.6273 373.864C66.0345 373.25 68.3774 372.463 70.6407 371.516L68.0136 360.779C67.9591 360.556 67.9266 360.338 67.914 360.126C69.7405 359.263 71.4922 358.263 73.1548 357.137C73.3298 357.255 73.4996 357.393 73.6624 357.552L81.5705 365.261C83.546 363.78 85.4127 362.158 87.1548 360.408L80.6246 351.502C80.4902 351.319 80.3775 351.131 80.285 350.941C81.6317 349.452 82.8667 347.857 83.9756 346.169C84.1842 346.211 84.3956 346.274 84.6085 346.359L94.8744 350.459C96.1274 348.349 97.2337 346.139 98.1783 343.841L88.7255 338.105C88.52 337.98 88.3352 337.842 88.1702 337.693C88.8245 335.829 89.3429 333.898 89.7129 331.91C89.9418 331.86 90.1838 331.832 90.4379 331.829L101.482 331.688C101.655 330.476 101.786 329.248 101.873 328.008C101.96 326.767 102.002 325.533 102 324.308L91.0831 322.628C90.8092 322.586 90.5537 322.516 90.3171 322.424C90.2042 320.439 89.9416 318.489 89.5399 316.587C89.7541 316.428 89.9951 316.289 90.2634 316.174L100.424 311.813C99.8095 309.406 99.0225 307.063 98.0761 304.8L87.3384 307.427C87.0228 307.504 86.7164 307.537 86.4224 307.532C85.5776 305.804 84.6086 304.145 83.5262 302.567C83.6751 302.292 83.8688 302.027 84.1113 301.778L91.8205 293.87C90.3397 291.894 88.7176 290.028 86.9681 288.286L78.0615 294.816C77.7527 295.042 77.4322 295.207 77.1084 295.317C75.7147 294.087 74.2312 292.954 72.6679 291.929C72.6892 291.573 72.7695 291.205 72.9183 290.832L77.0183 280.566C74.9092 279.313 72.6991 278.207 70.4012 277.262L64.6647 286.715C64.4391 287.087 64.1692 287.391 63.8701 287.632C62.1745 287.054 60.424 286.589 58.6266 286.246C58.4794 285.873 58.3943 285.457 58.3885 285.002L58.2479 273.958C57.0354 273.785 55.8081 273.654 54.5673 273.567C53.3264 273.48 52.0929 273.438 50.8682 273.44L49.1876 284.357C49.1142 284.834 48.9586 285.255 48.7418 285.618C46.9621 285.729 45.2114 285.96 43.4982 286.303C43.1901 286.004 42.9279 285.629 42.7338 285.177ZM82.2889 329.3C81.2409 336.098 78.058 342.124 73.4847 346.733L58.8229 329.86C59.2673 329.207 59.6304 328.492 59.8965 327.729L82.2889 329.3ZM51.4451 356.101C58.2757 356.013 64.6469 353.733 69.8293 349.896L55.1503 333.003C54.4776 333.322 53.7616 333.561 53.0153 333.709L51.4451 356.101ZM49.4331 315.688C48.6406 315.845 47.8822 316.105 47.1736 316.454L32.0633 299.065C37.387 295.088 43.9785 292.761 51.0397 292.777L49.4331 315.688ZM43.5486 319.652L28.4212 302.243C23.7915 306.948 20.604 313.113 19.6409 320.061L42.5519 321.667C42.8024 320.949 43.139 320.273 43.5486 319.652ZM82.6634 324.48L60.2347 322.907C60.0814 322.134 59.8302 321.393 59.4937 320.699L76.6119 305.824C80.4442 311.091 82.679 317.56 82.6634 324.48ZM73.4791 302.142L56.3182 317.054C55.6836 316.63 54.9918 316.283 54.2552 316.026L55.8592 293.151C62.7494 294.214 68.8473 297.469 73.4791 302.142ZM42.9439 328.676C42.6128 327.988 42.3654 327.255 42.2137 326.489L19.3392 324.885C19.4294 331.856 21.8018 338.349 25.7829 343.588L42.9439 328.676ZM46.1096 332.329L28.9914 347.204C33.6718 351.733 39.7658 354.849 46.6205 355.799L48.1932 333.371C47.4486 333.111 46.7498 332.759 46.1096 332.329Z" fill="#1060FF"/>
<circle cx="222" cy="324.44" r="51" fill="#E80505"/>
<path fill-rule="evenodd" clip-rule="evenodd" d="M231.917 297.523H212.083V314.524H195.286V334.357H212.083V351.357H231.917V334.357H249.119V314.524H231.917V297.523Z" fill="#FAF7F2"/>
<ellipse cx="393.753" cy="376.377" rx="3.15419" ry="2.62277" fill="#FFF7ED"/>
<path d="M379.242 358.344C379.242 355.583 381.481 353.344 384.242 353.344H402.847C405.608 353.344 407.847 355.583 407.847 358.344V362.161C407.847 370.06 401.443 376.463 393.544 376.463C385.645 376.463 379.242 370.06 379.242 362.161V358.344Z" fill="#BDB5A9"/>
<path fill-rule="evenodd" clip-rule="evenodd" d="M425.425 320.514C425.425 328.656 422.378 336.087 417.359 341.735C416.924 342.262 416.465 342.809 415.991 343.372C412.218 347.856 407.552 353.404 407.552 358.806H393.884H392.832H379.164C379.164 353.404 374.498 347.856 370.725 343.372C370.253 342.811 369.794 342.266 369.361 341.74C364.339 336.092 361.29 328.658 361.29 320.514C361.29 302.842 375.647 288.516 393.358 288.516C411.068 288.516 425.425 302.842 425.425 320.514Z" fill="#FBDD74"/>
<ellipse cx="393.358" cy="319.922" rx="21.5536" ry="21.5067" fill="#FFEA9F"/>
<path fill-rule="evenodd" clip-rule="evenodd" d="M405.09 333.036L405.09 333.032L399.133 333.032L396.504 356.698L395.468 356.584L398.084 333.032L397.204 333.032C396.862 333.032 396.595 332.827 396.423 332.66C396.236 332.479 396.058 332.239 395.891 331.987C395.652 331.627 395.397 331.178 395.143 330.731C395.044 330.557 394.945 330.383 394.848 330.215C394.485 329.59 394.133 329.03 393.79 328.659C393.465 328.308 393.284 328.266 393.195 328.277L393.193 328.284C393.189 328.282 393.184 328.281 393.178 328.28C393.173 328.281 393.168 328.282 393.163 328.284L393.161 328.277C393.073 328.266 392.891 328.308 392.566 328.659C392.224 329.03 391.871 329.59 391.509 330.215C391.411 330.383 391.313 330.557 391.214 330.731C390.96 331.178 390.705 331.627 390.466 331.987C390.299 332.239 390.12 332.479 389.933 332.66C389.762 332.827 389.495 333.032 389.152 333.032L388.272 333.032L390.888 356.584L389.852 356.698L387.224 333.032L381.267 333.032L381.267 331.992L387.108 331.992L386.537 326.847L386.525 326.848C386.525 323.951 384.17 321.496 381.267 321.496C378.363 321.496 376.01 323.845 376.01 326.742C376.01 329.639 378.363 331.987 381.267 331.987L381.267 333.036C377.783 333.036 374.958 330.218 374.958 326.742C374.958 323.265 377.783 320.447 381.267 320.447C384.715 320.447 387.518 323.314 387.575 326.742L387.574 326.742L388.157 331.992L389.114 331.992C389.129 331.982 389.16 331.96 389.207 331.914C389.313 331.811 389.443 331.645 389.596 331.413C389.814 331.084 390.041 330.685 390.287 330.252C390.39 330.071 390.496 329.884 390.607 329.694C390.967 329.073 391.37 328.42 391.8 327.955C392.136 327.591 392.613 327.21 393.178 327.233C393.744 327.21 394.221 327.591 394.557 327.955C394.986 328.42 395.389 329.073 395.75 329.694C395.86 329.884 395.966 330.071 396.069 330.252C396.315 330.685 396.542 331.084 396.76 331.413C396.913 331.645 397.043 331.811 397.15 331.914C397.197 331.96 397.227 331.982 397.243 331.992L398.199 331.992L398.783 326.742L398.781 326.742C398.838 323.314 401.641 320.447 405.09 320.447C408.574 320.447 411.398 323.265 411.398 326.742C411.398 330.218 408.574 333.036 405.09 333.036ZM410.347 326.742C410.347 329.639 407.993 331.987 405.09 331.987L405.09 331.992L399.248 331.992L399.819 326.847L399.832 326.848C399.832 323.951 402.186 321.496 405.09 321.496C407.993 321.496 410.347 323.845 410.347 326.742Z" fill="#081226"/>
<rect x="374.959" y="355.659" width="36.7988" height="4.19644" rx="2.09822" fill="#FFF7ED"/>
<path d="M390.004 285.668L389.078 269L396.486 269L395.56 285.668L390.004 285.668Z" fill="#FFEA9F"/>
<path d="M371.36 291.306L362.224 277.334L368.64 273.63L376.172 288.528L371.36 291.306Z" fill="#FFEA9F"/>
<path d="M409.326 288.528L416.859 273.63L423.274 277.334L414.138 291.306L409.326 288.528Z" fill="#FFEA9F"/>
<path d="M423.804 299.434L437.776 290.298L441.48 296.714L426.582 304.246L423.804 299.434Z" fill="#FFEA9F"/>
<path d="M356.668 319.93L340 320.856L340 313.448L356.668 314.374L356.668 319.93Z" fill="#FFEA9F"/>
<path d="M359.528 332.952L345.556 342.088L341.852 335.673L356.75 328.14L359.528 332.952Z" fill="#FFEA9F"/>
<path d="M429.36 328.14L444.258 335.672L440.554 342.088L426.582 332.952L429.36 328.14Z" fill="#FFEA9F"/>
<path d="M428.896 314.374L445.565 313.448L445.565 320.856L428.896 319.93L428.896 314.374Z" fill="#FFEA9F"/>
<path d="M359.528 304.246L344.63 296.714L348.334 290.298L362.306 299.434L359.528 304.246Z" fill="#FFEA9F"/>
<path d="M218.007 24.7653C218.007 22.9308 218.346 21.3962 219.023 20.1615C219.736 18.9267 220.984 17.6214 222.767 16.2456C223.98 15.3636 224.925 14.5875 225.602 13.9172C226.316 13.2469 226.833 12.5943 227.153 11.9593C227.474 11.289 227.635 10.5129 227.635 9.63093C227.635 8.29037 227.153 7.2673 226.191 6.56174C225.264 5.85617 223.926 5.50339 222.179 5.50339C220.61 5.50339 219.112 5.7327 217.686 6.19131C216.26 6.64993 214.833 7.23202 213.407 7.93759L211 2.96336C212.64 2.11669 214.405 1.41113 216.295 0.846677C218.221 0.282226 220.36 0 222.714 0C226.28 0 229.043 0.864315 231.005 2.59295C233.002 4.32157 234 6.56174 234 9.31343C234 10.8304 233.75 12.1357 233.251 13.2293C232.788 14.2877 232.092 15.2754 231.165 16.1927C230.238 17.1099 229.097 18.0801 227.742 19.1031C226.636 19.9498 225.781 20.673 225.174 21.2727C224.604 21.8725 224.212 22.4722 223.998 23.0719C223.819 23.6716 223.73 24.3772 223.73 25.1886V26.5115H218.007V24.7653ZM216.991 34.9254C216.991 33.4437 217.383 32.403 218.167 31.8033C218.988 31.1682 219.968 30.8507 221.109 30.8507C222.215 30.8507 223.16 31.1682 223.944 31.8033C224.764 32.403 225.174 33.4437 225.174 34.9254C225.174 36.3718 224.764 37.4125 223.944 38.0475C223.16 38.6825 222.215 39 221.109 39C219.968 39 218.988 38.6825 218.167 38.0475C217.383 37.4125 216.991 36.3718 216.991 34.9254Z" fill="#081226"/>
</svg>
