<svg width="190" height="426" viewBox="0 0 190 426" fill="none" xmlns="http://www.w3.org/2000/svg">
<path d="M79.9783 145.87C89.7806 141.566 114.688 134.966 135.9 143.001C156.147 150.67 96.8511 183.173 78.05 199.912C44.5618 229.726 138.631 225.418 187 226.215" stroke="#081226" stroke-width="6" stroke-linecap="round" stroke-linejoin="round" stroke-dasharray="12 12"/>
<rect x="8.54099" y="29.4096" width="26.5908" height="108.856" transform="rotate(-25.3577 8.54099 29.4096)" fill="#FFD500"/>
<path d="M78.919 146.864L55.1607 127.778L79.1895 116.39L78.919 146.864Z" fill="#E1C28B"/>
<path fill-rule="evenodd" clip-rule="evenodd" d="M61.1678 124.931C60.3817 123.272 58.3996 122.565 56.7407 123.351C55.0819 124.137 54.3744 126.119 55.1606 127.778L61.1678 124.931Z" fill="#E1C28B"/>
<path fill-rule="evenodd" clip-rule="evenodd" d="M67.1751 122.084C66.3889 120.425 64.4068 119.718 62.748 120.504C61.0891 121.29 60.3817 123.272 61.1679 124.931L67.1751 122.084Z" fill="#E1C28B"/>
<path fill-rule="evenodd" clip-rule="evenodd" d="M73.1822 119.237C72.3961 117.578 70.414 116.87 68.7551 117.657C67.0963 118.443 66.3888 120.425 67.175 122.084L73.1822 119.237Z" fill="#E1C28B"/>
<path fill-rule="evenodd" clip-rule="evenodd" d="M79.1895 116.39C78.4033 114.731 76.4212 114.024 74.7624 114.81C73.1036 115.596 72.3961 117.578 73.1823 119.237L79.1895 116.39Z" fill="#E1C28B"/>
<path fill-rule="evenodd" clip-rule="evenodd" d="M72.9999 142.108L78.919 146.864L78.9864 139.271C77.8795 139.334 76.7719 139.605 75.7161 140.105C74.6604 140.606 73.7491 141.291 72.9999 142.108Z" fill="#081226"/>
<rect x="6.40576" y="24.9042" width="26.5908" height="4.98578" transform="rotate(-25.3577 6.40576 24.9042)" fill="#BDB5A9"/>
<rect x="0.355835" y="12.1389" width="26.5908" height="14.1264" transform="rotate(-25.3577 0.355835 12.1389)" fill="#FF9B9B"/>
<ellipse cx="12.3703" cy="6.44491" rx="13.2954" ry="0.830964" transform="rotate(-25.3577 12.3703 6.44491)" fill="#FFACAC"/>
<path fill-rule="evenodd" clip-rule="evenodd" d="M115.139 322.954C122.154 318.061 131.771 319.441 136.566 326.315L137.945 328.292C142.74 335.166 140.713 344.668 133.698 349.561L114.782 362.756L107.572 367.785L62.5348 399.199C56.2786 403.563 47.6959 402.942 43.5422 396.987L42.7453 395.845C38.5916 389.89 40.9736 381.621 47.2298 377.257L99.477 340.814L101.765 344.094L49.5182 380.538C44.6202 383.954 43.4309 389.836 46.026 393.556L46.8229 394.699C49.418 398.419 55.3485 399.335 60.2464 395.918L105.284 364.504L112.494 359.475L131.409 346.281C136.762 342.547 138.093 335.497 134.664 330.58L133.285 328.604C129.856 323.687 122.779 322.501 117.427 326.235L114.204 328.483L91.3012 344.458L31.3235 386.294C24.7616 390.871 23.1043 399.561 27.3582 405.66L29.3124 408.461C33.5664 414.56 42.294 416.006 48.8559 411.429L131.736 353.618L134.024 356.899L51.1443 414.71C42.9107 420.453 31.6451 418.798 26.0317 410.75L24.0775 407.948C18.464 399.9 20.8016 388.756 29.0351 383.013L89.0129 341.177L111.915 325.203L115.139 322.954Z" fill="#081226"/>
</svg>
