<svg width="257" height="647" viewBox="0 0 257 647" fill="none" xmlns="http://www.w3.org/2000/svg">
<rect x="232" y="98" width="25" height="549" fill="#A7B2D7"/>
<rect x="58" y="94" width="25" height="70" fill="#A7B2D7"/>
<path fill-rule="evenodd" clip-rule="evenodd" d="M157.5 0C212.452 0 257 44.5477 257 99.5H231.998C231.731 58.3088 198.48 25 157.5 25C116.52 25 83.2688 58.3088 83.0016 99.5H58C58 44.5477 102.548 0 157.5 0Z" fill="#A7B2D7"/>
<path fill-rule="evenodd" clip-rule="evenodd" d="M103 148C103 129.775 88.2254 115 70 115C51.7746 115 37 129.775 37 148H103Z" fill="#FAF7F2"/>
<ellipse cx="70" cy="153" rx="70" ry="8" fill="#C3C1CF"/>
<circle cx="70.5" cy="205.5" r="9.5" fill="#FFF4CE"/>
<path fill-rule="evenodd" clip-rule="evenodd" d="M103 155C103 153.895 88.2254 153 70 153C51.7746 153 37 153.895 37 155V205H103V155Z" fill="#F7F1E8"/>
<rect x="37" y="282" width="183" height="292" fill="#132C64"/>
<path d="M80.9933 331.562C86.9933 325.562 101.493 325.396 107.993 326.062C115.493 317.062 123.993 321.562 127.993 319.562C131.193 317.962 133.993 317.896 134.993 318.062L127.993 328.562C137.593 330.962 148.16 336.396 151.993 338.562C152.993 340.062 147.493 343.062 144.493 338.562C142.093 334.962 136.16 334.062 133.493 334.062L135.493 336.062V339.562C139.893 339.962 143.993 342.062 145.493 343.062H151.993C160.827 346.729 178.393 354.262 177.993 355.062C177.593 355.862 169.16 359.062 164.993 360.562C164.993 353.362 151.327 351.896 144.493 352.062C106.993 327.562 87.9933 341.062 79.9933 350.062C79.1933 340.462 87.9933 333.396 92.4933 331.062C88.0933 329.862 82.9933 330.896 80.9933 331.562Z" fill="#FAF7F2"/>
<path d="M94.9933 372.562C95.66 362.562 104.493 344.262 134.493 351.062C111.993 335.062 69.9933 348.062 94.9933 372.562Z" fill="#FAF7F2"/>
<path d="M143.493 372.062C135.493 355.062 118.493 362.562 120.993 376.062C95.2229 370.562 111.993 347.562 136.993 357.062C137.793 364.662 150.16 365.562 156.493 365.062L157.493 368.562C152.293 368.562 145.993 370.896 143.493 372.062Z" fill="#FAF7F2"/>
<rect width="119" height="25" transform="matrix(-1 0 0 1 188 405)" fill="#FAF7F2"/>
<path fill-rule="evenodd" clip-rule="evenodd" d="M49 411H74V436H49L65 423.5L49 411Z" fill="#FAF7F2"/>
<path fill-rule="evenodd" clip-rule="evenodd" d="M208 411H183V436H208L192 423.5L208 411Z" fill="#FAF7F2"/>
<path d="M187 430H183V436L187 430Z" fill="#C4C4C4"/>
<path d="M70 430H74V436L70 430Z" fill="#C4C4C4"/>
<rect width="119" height="25" transform="matrix(-1 0 0 1 188 456)" fill="#FAF7F2"/>
<path fill-rule="evenodd" clip-rule="evenodd" d="M49 462H74V487H49L65 474.5L49 462Z" fill="#FAF7F2"/>
<path fill-rule="evenodd" clip-rule="evenodd" d="M208 462H183V487H208L192 474.5L208 462Z" fill="#FAF7F2"/>
<path d="M187 481H183V487L187 481Z" fill="#C4C4C4"/>
<path d="M70 481H74V487L70 481Z" fill="#C4C4C4"/>
<rect width="119" height="25" transform="matrix(-1 0 0 1 188 507)" fill="#FAF7F2"/>
<path fill-rule="evenodd" clip-rule="evenodd" d="M49 513H74V538H49L65 525.5L49 513Z" fill="#FAF7F2"/>
<path fill-rule="evenodd" clip-rule="evenodd" d="M208 513H183V538H208L192 525.5L208 513Z" fill="#FAF7F2"/>
<path d="M187 532H183V538L187 532Z" fill="#C4C4C4"/>
<path d="M70 532H74V538L70 532Z" fill="#C4C4C4"/>
<path d="M245 293C240.396 293 236.005 292.616 232 291.921V284C236.005 284.695 240.396 285.079 245 285.079C249.224 285.079 253.268 284.756 257 284.166V292.087C253.268 292.677 249.224 293 245 293Z" fill="#7B86AB"/>
<path d="M245 573C240.396 573 236.005 572.616 232 571.921V564C236.005 564.695 240.396 565.079 245 565.079C249.224 565.079 253.268 564.756 257 564.166V572.087C253.268 572.677 249.224 573 245 573Z" fill="#7B86AB"/>
<rect x="220" y="286" width="12" height="4" fill="#7B86AB"/>
<rect x="220" y="566" width="12" height="4" fill="#7B86AB"/>
</svg>
