<svg width="167" height="165" viewBox="0 0 167 165" fill="none" xmlns="http://www.w3.org/2000/svg">
<path d="M5.53738 8C4.84028 36.8929 15.7033 67.0191 21.222 78.4706C45.3299 80.526 91.6286 73.3615 70.0187 49.4015C48.4087 25.4415 16.8652 13.5789 5.53738 8Z" fill="#EFEFEF" stroke="#C2C2C2" stroke-width="10"/>
<path d="M161.022 8C161.719 36.8929 150.856 67.0191 145.337 78.4706C121.229 80.526 74.9307 73.3615 96.5407 49.4015C118.151 25.4415 149.694 13.5789 161.022 8Z" fill="#EFEFEF" stroke="#C2C2C2" stroke-width="10"/>
<path d="M156.237 99.7442C156.237 139.151 83.5 158.459 83.5 158.459C83.5 158.459 10.7634 141.9 10.7634 99.7442C10.7634 61.784 43.3287 31.0112 83.5 31.0112C123.671 31.0112 156.237 61.784 156.237 99.7442Z" fill="#C2C2C2"/>
<path d="M2 109.781C6.90753 109.073 11.3477 105.061 12.5161 103.586C16.0215 100.045 24.7849 92.9648 32.672 92.9648C40.5591 92.9648 45.8172 93.8499 52.8279 99.1602C61.3857 105.642 73.8602 124.827 82.6236 152.264L74.7365 157.574C51.0753 145.183 25.0771 143.708 16.0215 142.528C16.0215 138.103 17.7742 136.333 19.5269 133.677C16.0215 133.677 6.38172 130.137 5.50538 128.367C5.50538 125.712 7.25806 119.516 8.13441 117.746C3.92796 115.622 2.29211 111.551 2 109.781Z" fill="#EFEFEF"/>
<path d="M165 109.781C160.092 109.073 155.652 105.061 154.484 103.586C150.978 100.046 142.215 92.9653 134.328 92.9653C126.441 92.9653 121.183 93.8504 114.172 99.1607C105.614 105.643 93.1398 124.827 84.3764 152.264L92.2635 157.574C115.925 145.184 141.923 143.708 150.978 142.528C150.978 138.103 149.226 136.333 147.473 133.678C150.978 133.678 160.618 130.138 161.495 128.368C161.495 125.712 159.742 119.517 158.866 117.747C163.072 115.623 164.708 111.551 165 109.781Z" fill="#EFEFEF"/>
<path d="M86.3282 163.218C84.9099 164.275 82.9656 164.275 81.5472 163.218L74.9867 158.329C71.8996 156.028 73.5269 151.122 77.3771 151.122H90.4964C94.3463 151.122 95.9737 156.027 92.8871 158.328L86.3282 163.218Z" fill="#081226"/>
<ellipse cx="44.9408" cy="114.206" rx="6.13441" ry="7.08044" fill="#081226"/>
<path d="M112.57 113.533C114.993 110.587 121.395 106.463 127.624 113.533" stroke="#081226" stroke-width="3" stroke-linecap="round" stroke-linejoin="round"/>
<path d="M31.0705 101.383C34.1849 95.2822 41.9769 90.6838 52.7508 95.2822" stroke="#081226" stroke-width="5" stroke-linecap="round" stroke-linejoin="round"/>
<path d="M135.919 100.474C132.805 94.3735 125.013 89.7751 114.239 94.3735" stroke="#081226" stroke-width="5" stroke-linecap="round" stroke-linejoin="round"/>
</svg>
